<mxfile host="app.diagrams.net" agent="Mozilla/5.0 (Macintosh; Intel Mac OS X 10_15_7) AppleWebKit/605.1.15 (KHTML, like Gecko) Version/15.2 Safari/605.1.15" version="26.0.1" pages="4">
  <diagram id="Ns0m-yxf54VYM_SKAjiW" name="DFD mức 0">
    <mxGraphModel dx="2394" dy="1232" grid="1" gridSize="10" guides="1" tooltips="1" connect="1" arrows="1" fold="1" page="1" pageScale="1" pageWidth="850" pageHeight="1100" math="0" shadow="0">
      <root>
        <mxCell id="0" />
        <mxCell id="1" parent="0" />
        <mxCell id="84JHz8ZqsLWefTGeMlG0-15" value="0" style="swimlane;fontStyle=0;childLayout=stackLayout;horizontal=1;startSize=20;fillColor=#008a00;horizontalStack=0;resizeParent=1;resizeParentMax=0;resizeLast=0;collapsible=0;marginBottom=0;swimlaneFillColor=#ffffff;rounded=1;rotation=0;arcSize=41;strokeColor=#005700;fontColor=#ffffff;swimlaneLine=1;shadow=0;glass=0;" vertex="1" parent="1">
          <mxGeometry x="608" y="364" width="204" height="110" as="geometry" />
        </mxCell>
        <mxCell id="84JHz8ZqsLWefTGeMlG0-16" value="&lt;b&gt;WEBSITE QUẢN LÝ BÁN HÀNG CỬA HÀNG INNISFREE&lt;/b&gt;" style="text;html=1;strokeColor=#2D7600;fillColor=#60a917;align=center;verticalAlign=middle;whiteSpace=wrap;rounded=1;fontColor=#ffffff;" vertex="1" parent="84JHz8ZqsLWefTGeMlG0-15">
          <mxGeometry y="20" width="204" height="90" as="geometry" />
        </mxCell>
        <mxCell id="84JHz8ZqsLWefTGeMlG0-17" style="edgeStyle=orthogonalEdgeStyle;rounded=0;orthogonalLoop=1;jettySize=auto;html=1;entryX=0;entryY=0.25;entryDx=0;entryDy=0;exitX=1.033;exitY=0.117;exitDx=0;exitDy=0;exitPerimeter=0;" edge="1" parent="1" source="84JHz8ZqsLWefTGeMlG0-19" target="84JHz8ZqsLWefTGeMlG0-16">
          <mxGeometry relative="1" as="geometry" />
        </mxCell>
        <mxCell id="84JHz8ZqsLWefTGeMlG0-18" value="Đơn đặt hàng được tạo&amp;nbsp;&amp;nbsp;" style="edgeLabel;html=1;align=center;verticalAlign=middle;resizable=0;points=[];" connectable="0" vertex="1" parent="84JHz8ZqsLWefTGeMlG0-17">
          <mxGeometry x="-0.1677" relative="1" as="geometry">
            <mxPoint x="14" y="-2" as="offset" />
          </mxGeometry>
        </mxCell>
        <mxCell id="84JHz8ZqsLWefTGeMlG0-19" value="KHÁCH" style="rounded=0;whiteSpace=wrap;html=1;fillColor=#ffcd28;strokeColor=#d79b00;gradientColor=#ffa500;" vertex="1" parent="1">
          <mxGeometry x="338" y="401" width="120" height="60" as="geometry" />
        </mxCell>
        <mxCell id="84JHz8ZqsLWefTGeMlG0-20" style="edgeStyle=orthogonalEdgeStyle;rounded=0;orthogonalLoop=1;jettySize=auto;html=1;exitX=0;exitY=0.5;exitDx=0;exitDy=0;entryX=1;entryY=0.5;entryDx=0;entryDy=0;" edge="1" parent="1" source="84JHz8ZqsLWefTGeMlG0-16" target="84JHz8ZqsLWefTGeMlG0-19">
          <mxGeometry relative="1" as="geometry" />
        </mxCell>
        <mxCell id="84JHz8ZqsLWefTGeMlG0-21" value="Đơn đặt hàng&lt;br&gt;&amp;nbsp;được xác nhận&amp;nbsp;&amp;nbsp;" style="edgeLabel;html=1;align=center;verticalAlign=middle;resizable=0;points=[];" connectable="0" vertex="1" parent="84JHz8ZqsLWefTGeMlG0-20">
          <mxGeometry x="0.0529" relative="1" as="geometry">
            <mxPoint x="5" as="offset" />
          </mxGeometry>
        </mxCell>
        <mxCell id="84JHz8ZqsLWefTGeMlG0-22" style="edgeStyle=orthogonalEdgeStyle;rounded=0;orthogonalLoop=1;jettySize=auto;html=1;exitX=0.25;exitY=0;exitDx=0;exitDy=0;entryX=0.583;entryY=0.009;entryDx=0;entryDy=0;entryPerimeter=0;" edge="1" parent="1" source="84JHz8ZqsLWefTGeMlG0-19" target="84JHz8ZqsLWefTGeMlG0-15">
          <mxGeometry relative="1" as="geometry">
            <Array as="points">
              <mxPoint x="368" y="323" />
              <mxPoint x="727" y="323" />
            </Array>
          </mxGeometry>
        </mxCell>
        <mxCell id="84JHz8ZqsLWefTGeMlG0-23" value="Thông tin khách hàng" style="edgeLabel;html=1;align=center;verticalAlign=middle;resizable=0;points=[];" connectable="0" vertex="1" parent="84JHz8ZqsLWefTGeMlG0-22">
          <mxGeometry x="-0.1564" y="4" relative="1" as="geometry">
            <mxPoint as="offset" />
          </mxGeometry>
        </mxCell>
        <mxCell id="84JHz8ZqsLWefTGeMlG0-24" style="edgeStyle=orthogonalEdgeStyle;rounded=0;orthogonalLoop=1;jettySize=auto;html=1;exitX=0.5;exitY=1;exitDx=0;exitDy=0;entryX=0.25;entryY=1;entryDx=0;entryDy=0;" edge="1" parent="1">
          <mxGeometry relative="1" as="geometry">
            <mxPoint x="692.03" y="474" as="sourcePoint" />
            <mxPoint x="350.03" y="461" as="targetPoint" />
            <Array as="points">
              <mxPoint x="692.03" y="554" />
              <mxPoint x="350.03" y="554" />
            </Array>
          </mxGeometry>
        </mxCell>
        <mxCell id="84JHz8ZqsLWefTGeMlG0-25" value="Sản phẩm được đặt mua" style="edgeLabel;html=1;align=center;verticalAlign=middle;resizable=0;points=[];" connectable="0" vertex="1" parent="84JHz8ZqsLWefTGeMlG0-24">
          <mxGeometry x="0.2328" y="-2" relative="1" as="geometry">
            <mxPoint x="30" y="7" as="offset" />
          </mxGeometry>
        </mxCell>
        <mxCell id="84JHz8ZqsLWefTGeMlG0-26" value="NHÀ CUNG CẤP" style="rounded=0;whiteSpace=wrap;html=1;fontFamily=Times New Roman;fontSize=14;fillColor=#ffcd28;gradientColor=#ffa500;strokeColor=#d79b00;" vertex="1" parent="1">
          <mxGeometry x="1014" y="390" width="120" height="60" as="geometry" />
        </mxCell>
        <mxCell id="84JHz8ZqsLWefTGeMlG0-27" value="Yêu cầu nhập hàng&amp;nbsp;" style="endArrow=classic;html=1;rounded=0;entryX=0.25;entryY=0;entryDx=0;entryDy=0;exitX=0.767;exitY=0.092;exitDx=0;exitDy=0;exitPerimeter=0;edgeStyle=orthogonalEdgeStyle;" edge="1" parent="1" target="84JHz8ZqsLWefTGeMlG0-26">
          <mxGeometry width="50" height="50" relative="1" as="geometry">
            <mxPoint x="772" y="371" as="sourcePoint" />
            <mxPoint x="1050" y="270" as="targetPoint" />
            <Array as="points">
              <mxPoint x="772" y="320" />
              <mxPoint x="1044" y="320" />
            </Array>
          </mxGeometry>
        </mxCell>
        <mxCell id="84JHz8ZqsLWefTGeMlG0-28" value="Thông tin kho hàng" style="endArrow=classic;html=1;rounded=0;entryX=0.757;entryY=0.942;entryDx=0;entryDy=0;exitX=0.25;exitY=1;exitDx=0;exitDy=0;entryPerimeter=0;edgeStyle=orthogonalEdgeStyle;" edge="1" parent="1" source="84JHz8ZqsLWefTGeMlG0-26">
          <mxGeometry width="50" height="50" relative="1" as="geometry">
            <mxPoint x="1064" y="421" as="sourcePoint" />
            <mxPoint x="770" y="473" as="targetPoint" />
            <Array as="points">
              <mxPoint x="1044" y="510" />
              <mxPoint x="770" y="510" />
            </Array>
          </mxGeometry>
        </mxCell>
      </root>
    </mxGraphModel>
  </diagram>
  <diagram id="jsAWBe3SXFOicYu9vNrP" name="DFD mức 1">
    <mxGraphModel dx="3244" dy="1232" grid="1" gridSize="10" guides="1" tooltips="1" connect="1" arrows="1" fold="1" page="1" pageScale="1" pageWidth="850" pageHeight="1100" math="0" shadow="0">
      <root>
        <mxCell id="0" />
        <mxCell id="1" parent="0" />
        <mxCell id="DAvzXwN_5_bu79o8ZOUY-12" value="Hóa đơn đơn hàng" style="rounded=0;orthogonalLoop=1;jettySize=auto;html=1;exitX=0.241;exitY=0.071;exitDx=0;exitDy=0;entryX=0.5;entryY=1;entryDx=0;entryDy=0;exitPerimeter=0;edgeStyle=orthogonalEdgeStyle;" parent="1" edge="1">
          <mxGeometry relative="1" as="geometry">
            <Array as="points">
              <mxPoint x="279" y="460" />
              <mxPoint x="-180" y="460" />
            </Array>
            <mxPoint x="279.3800000000001" y="543.52" as="sourcePoint" />
            <mxPoint x="-180" y="300" as="targetPoint" />
          </mxGeometry>
        </mxCell>
        <mxCell id="bA0dW2Dr2lLN3_PL_JRz-1" value="Thông&amp;nbsp;" style="edgeStyle=orthogonalEdgeStyle;rounded=0;orthogonalLoop=1;jettySize=auto;html=1;entryX=0.5;entryY=0;entryDx=0;entryDy=0;exitX=0.544;exitY=0.989;exitDx=0;exitDy=0;exitPerimeter=0;" parent="1" source="NMYbpX2E4DWO_N-_EvTO-58" edge="1">
          <mxGeometry relative="1" as="geometry">
            <mxPoint x="320" y="330" as="sourcePoint" />
            <mxPoint x="326" y="535" as="targetPoint" />
          </mxGeometry>
        </mxCell>
        <mxCell id="bA0dW2Dr2lLN3_PL_JRz-2" value="Thông tin&lt;br&gt;thanh toán" style="edgeLabel;html=1;align=center;verticalAlign=middle;resizable=0;points=[];" parent="bA0dW2Dr2lLN3_PL_JRz-1" vertex="1" connectable="0">
          <mxGeometry x="0.1303" y="1" relative="1" as="geometry">
            <mxPoint x="-1" y="-8" as="offset" />
          </mxGeometry>
        </mxCell>
        <mxCell id="ghLBsGicEwFWm54R2Bvp-48" value="Yêu cầu mua hàng" style="endArrow=classic;html=1;rounded=0;exitX=1;exitY=0.5;exitDx=0;exitDy=0;entryX=0;entryY=0.25;entryDx=0;entryDy=0;" parent="1" edge="1">
          <mxGeometry width="50" height="50" relative="1" as="geometry">
            <mxPoint x="-120" y="270" as="sourcePoint" />
            <mxPoint x="230" y="267.5" as="targetPoint" />
          </mxGeometry>
        </mxCell>
        <mxCell id="ghLBsGicEwFWm54R2Bvp-49" value="Số lượng&lt;br&gt;sản phẩm" style="endArrow=classic;html=1;rounded=0;exitX=1;exitY=0.5;exitDx=0;exitDy=0;entryX=0.002;entryY=0.302;entryDx=0;entryDy=0;entryPerimeter=0;" parent="1" source="ghLBsGicEwFWm54R2Bvp-52" edge="1">
          <mxGeometry x="-0.0184" y="1" width="50" height="50" relative="1" as="geometry">
            <mxPoint x="580" y="312" as="sourcePoint" />
            <mxPoint x="740.3600000000001" y="271.1400000000001" as="targetPoint" />
            <mxPoint as="offset" />
          </mxGeometry>
        </mxCell>
        <mxCell id="ghLBsGicEwFWm54R2Bvp-50" value="Thông tin khách hàng" style="endArrow=classic;html=1;rounded=0;exitX=1;exitY=0.75;exitDx=0;exitDy=0;entryX=0;entryY=0.5;entryDx=0;entryDy=0;" parent="1" edge="1">
          <mxGeometry width="50" height="50" relative="1" as="geometry">
            <mxPoint x="-120" y="285" as="sourcePoint" />
            <mxPoint x="230" y="285" as="targetPoint" />
          </mxGeometry>
        </mxCell>
        <mxCell id="ghLBsGicEwFWm54R2Bvp-51" value="Thông tin&lt;br&gt;sản phẩm" style="endArrow=classic;html=1;rounded=0;" parent="1" edge="1">
          <mxGeometry x="-0.0769" width="50" height="50" relative="1" as="geometry">
            <mxPoint x="410" y="270" as="sourcePoint" />
            <mxPoint x="510" y="270" as="targetPoint" />
            <mxPoint as="offset" />
          </mxGeometry>
        </mxCell>
        <mxCell id="ghLBsGicEwFWm54R2Bvp-52" value="Sản phẩm" style="html=1;dashed=0;whiteSpace=wrap;shape=partialRectangle;right=0;left=0;" parent="1" vertex="1">
          <mxGeometry x="540" y="255" width="100" height="30" as="geometry" />
        </mxCell>
        <mxCell id="ghLBsGicEwFWm54R2Bvp-53" value="Số lượng&lt;br&gt;sản phẩm" style="endArrow=classic;html=1;rounded=0;entryX=0.5;entryY=0;entryDx=0;entryDy=0;exitX=0.5;exitY=1;exitDx=0;exitDy=0;" parent="1" edge="1">
          <mxGeometry width="50" height="50" relative="1" as="geometry">
            <mxPoint x="830" y="330" as="sourcePoint" />
            <mxPoint x="830" y="420" as="targetPoint" />
          </mxGeometry>
        </mxCell>
        <mxCell id="ghLBsGicEwFWm54R2Bvp-54" value="Hóa đơn" style="html=1;dashed=0;whiteSpace=wrap;shape=partialRectangle;right=0;left=0;" parent="1" vertex="1">
          <mxGeometry x="50" y="575" width="100" height="30" as="geometry" />
        </mxCell>
        <mxCell id="ghLBsGicEwFWm54R2Bvp-55" value="Thông tin &lt;br&gt;hóa đơn" style="endArrow=classic;html=1;rounded=0;exitX=0.006;exitY=0.398;exitDx=0;exitDy=0;entryX=1;entryY=0.25;entryDx=0;entryDy=0;exitPerimeter=0;" parent="1" source="ghLBsGicEwFWm54R2Bvp-54" edge="1">
          <mxGeometry width="50" height="50" relative="1" as="geometry">
            <mxPoint x="-54" y="555" as="sourcePoint" />
            <mxPoint x="-50" y="587.5" as="targetPoint" />
          </mxGeometry>
        </mxCell>
        <mxCell id="ghLBsGicEwFWm54R2Bvp-57" value="Thông tin đơn hàng" style="endArrow=classic;html=1;rounded=0;entryX=0.5;entryY=0;entryDx=0;entryDy=0;edgeStyle=orthogonalEdgeStyle;exitX=0.5;exitY=0;exitDx=0;exitDy=0;" parent="1" edge="1">
          <mxGeometry width="50" height="50" relative="1" as="geometry">
            <mxPoint x="320" y="210" as="sourcePoint" />
            <mxPoint x="-180" y="240" as="targetPoint" />
          </mxGeometry>
        </mxCell>
        <mxCell id="ghLBsGicEwFWm54R2Bvp-58" value="Đơn hàng" style="html=1;dashed=0;whiteSpace=wrap;shape=partialRectangle;right=0;left=0;" parent="1" vertex="1">
          <mxGeometry x="530" y="590" width="100" height="30" as="geometry" />
        </mxCell>
        <mxCell id="ghLBsGicEwFWm54R2Bvp-60" value="Hóa đơn &lt;br&gt;thanh toán" style="endArrow=classic;html=1;rounded=0;exitX=0.014;exitY=0.163;exitDx=0;exitDy=0;exitPerimeter=0;" parent="1" edge="1">
          <mxGeometry x="-0.5889" y="-1" width="50" height="50" relative="1" as="geometry">
            <mxPoint x="238.51999999999998" y="586.4100000000001" as="sourcePoint" />
            <mxPoint x="170" y="585" as="targetPoint" />
            <mxPoint as="offset" />
          </mxGeometry>
        </mxCell>
        <mxCell id="bA0dW2Dr2lLN3_PL_JRz-3" value="Sô lượng sản phẩm tồn kho" style="edgeStyle=orthogonalEdgeStyle;rounded=0;orthogonalLoop=1;jettySize=auto;html=1;exitX=0.5;exitY=1;exitDx=0;exitDy=0;entryX=0.5;entryY=1;entryDx=0;entryDy=0;" parent="1" edge="1">
          <mxGeometry relative="1" as="geometry">
            <Array as="points">
              <mxPoint x="830" y="690" />
              <mxPoint x="-140" y="690" />
            </Array>
            <mxPoint x="830" y="650" as="sourcePoint" />
            <mxPoint x="-140" y="650" as="targetPoint" />
          </mxGeometry>
        </mxCell>
        <mxCell id="DAvzXwN_5_bu79o8ZOUY-7" value="Số lượng&lt;br&gt;xuất kho" style="rounded=0;orthogonalLoop=1;jettySize=auto;html=1;exitX=0.5;exitY=1;exitDx=0;exitDy=0;entryX=0.504;entryY=-0.013;entryDx=0;entryDy=0;entryPerimeter=0;" parent="1" edge="1">
          <mxGeometry relative="1" as="geometry">
            <mxPoint x="830.7199999999998" y="528.44" as="targetPoint" />
            <mxPoint x="830" y="450" as="sourcePoint" />
          </mxGeometry>
        </mxCell>
        <mxCell id="DAvzXwN_5_bu79o8ZOUY-8" style="rounded=0;orthogonalLoop=1;jettySize=auto;html=1;entryX=1;entryY=0.5;entryDx=0;entryDy=0;exitX=0;exitY=0.5;exitDx=0;exitDy=0;" parent="1" target="ghLBsGicEwFWm54R2Bvp-58" edge="1">
          <mxGeometry relative="1" as="geometry">
            <mxPoint x="740" y="605" as="sourcePoint" />
          </mxGeometry>
        </mxCell>
        <mxCell id="DAvzXwN_5_bu79o8ZOUY-9" value="Sô lượng&lt;br&gt;xuất kho" style="edgeLabel;html=1;align=center;verticalAlign=middle;resizable=0;points=[];" parent="DAvzXwN_5_bu79o8ZOUY-8" vertex="1" connectable="0">
          <mxGeometry x="0.4225" relative="1" as="geometry">
            <mxPoint x="28" as="offset" />
          </mxGeometry>
        </mxCell>
        <mxCell id="DAvzXwN_5_bu79o8ZOUY-10" value="Thông tin&lt;br&gt;đơn hàng" style="rounded=0;orthogonalLoop=1;jettySize=auto;html=1;exitX=0.5;exitY=0;exitDx=0;exitDy=0;entryX=0.794;entryY=0.915;entryDx=0;entryDy=0;entryPerimeter=0;edgeStyle=orthogonalEdgeStyle;" parent="1" source="ghLBsGicEwFWm54R2Bvp-58" edge="1">
          <mxGeometry x="-0.0362" relative="1" as="geometry">
            <mxPoint x="372.9200000000001" y="319.79999999999995" as="targetPoint" />
            <mxPoint as="offset" />
          </mxGeometry>
        </mxCell>
        <mxCell id="DAvzXwN_5_bu79o8ZOUY-15" value="Thông tin&lt;br&gt;kho" style="rounded=0;orthogonalLoop=1;jettySize=auto;html=1;exitX=0;exitY=0.75;exitDx=0;exitDy=0;" parent="1" edge="1">
          <mxGeometry relative="1" as="geometry">
            <mxPoint x="1030" y="605" as="sourcePoint" />
            <mxPoint x="910" y="605" as="targetPoint" />
          </mxGeometry>
        </mxCell>
        <mxCell id="DAvzXwN_5_bu79o8ZOUY-16" value="Yêu cầu&lt;br&gt;nhập hàng" style="rounded=0;orthogonalLoop=1;jettySize=auto;html=1;entryX=0;entryY=0.25;entryDx=0;entryDy=0;" parent="1" edge="1">
          <mxGeometry x="-0.0909" relative="1" as="geometry">
            <mxPoint x="910" y="575" as="sourcePoint" />
            <mxPoint x="1030" y="575" as="targetPoint" />
            <mxPoint as="offset" />
          </mxGeometry>
        </mxCell>
        <mxCell id="NMYbpX2E4DWO_N-_EvTO-7" value="1.0" style="swimlane;fontStyle=0;childLayout=stackLayout;horizontal=1;startSize=20;fillColor=#60a917;horizontalStack=0;resizeParent=1;resizeParentMax=0;resizeLast=0;collapsible=0;marginBottom=0;swimlaneFillColor=#ffffff;rounded=1;rotation=0;arcSize=41;strokeColor=#2D7600;fontColor=#ffffff;" parent="1" vertex="1">
          <mxGeometry x="230" y="200" width="180" height="110" as="geometry" />
        </mxCell>
        <mxCell id="NMYbpX2E4DWO_N-_EvTO-58" value="&lt;font color=&quot;#003300&quot;&gt;&lt;span style=&quot;caret-color: rgb(0, 51, 0); font-size: 20px;&quot;&gt;&lt;b&gt;Quản lý đơn hàng&lt;/b&gt;&lt;/span&gt;&lt;/font&gt;" style="text;html=1;strokeColor=none;fillColor=none;align=center;verticalAlign=middle;whiteSpace=wrap;rounded=0;" parent="NMYbpX2E4DWO_N-_EvTO-7" vertex="1">
          <mxGeometry y="20" width="180" height="90" as="geometry" />
        </mxCell>
        <mxCell id="NMYbpX2E4DWO_N-_EvTO-9" value="D2" style="html=1;dashed=0;whiteSpace=wrap;shape=mxgraph.dfd.dataStoreID;align=left;spacingLeft=3;points=[[0,0],[0.5,0],[1,0],[0,0.5],[1,0.5],[0,1],[0.5,1],[1,1]];fillColor=#ffcc99;strokeColor=#36393d;" parent="1" vertex="1">
          <mxGeometry x="31" y="570" width="135" height="30" as="geometry" />
        </mxCell>
        <mxCell id="NMYbpX2E4DWO_N-_EvTO-12" value="Hoá đơn, báo cáo" style="text;html=1;strokeColor=#36393d;fillColor=#ffcc99;align=center;verticalAlign=middle;whiteSpace=wrap;rounded=0;" parent="1" vertex="1">
          <mxGeometry x="62" y="570" width="107" height="30" as="geometry" />
        </mxCell>
        <mxCell id="NMYbpX2E4DWO_N-_EvTO-13" value="D2" style="html=1;dashed=0;whiteSpace=wrap;shape=mxgraph.dfd.dataStoreID;align=left;spacingLeft=3;points=[[0,0],[0.5,0],[1,0],[0,0.5],[1,0.5],[0,1],[0.5,1],[1,1]];fillColor=#ffcc99;strokeColor=#36393d;" parent="1" vertex="1">
          <mxGeometry x="760" y="410" width="123" height="31" as="geometry" />
        </mxCell>
        <mxCell id="NMYbpX2E4DWO_N-_EvTO-14" value="Kho" style="text;html=1;strokeColor=#36393d;fillColor=#ffcc99;align=center;verticalAlign=middle;whiteSpace=wrap;rounded=0;" parent="1" vertex="1">
          <mxGeometry x="791" y="411" width="106" height="30" as="geometry" />
        </mxCell>
        <mxCell id="NMYbpX2E4DWO_N-_EvTO-19" value="D1" style="html=1;dashed=0;whiteSpace=wrap;shape=mxgraph.dfd.dataStoreID;align=left;spacingLeft=3;points=[[0,0],[0.5,0],[1,0],[0,0.5],[1,0.5],[0,1],[0.5,1],[1,1]];fillColor=#ffcc99;strokeColor=#36393d;" parent="1" vertex="1">
          <mxGeometry x="509" y="255" width="142" height="30" as="geometry" />
        </mxCell>
        <mxCell id="NMYbpX2E4DWO_N-_EvTO-20" value="Danh sách sản phẩm" style="text;html=1;strokeColor=#36393d;fillColor=#ffcc99;align=center;verticalAlign=middle;whiteSpace=wrap;rounded=0;" parent="1" vertex="1">
          <mxGeometry x="540" y="255" width="111" height="30" as="geometry" />
        </mxCell>
        <mxCell id="NMYbpX2E4DWO_N-_EvTO-35" value="D3" style="html=1;dashed=0;whiteSpace=wrap;shape=mxgraph.dfd.dataStoreID;align=left;spacingLeft=3;points=[[0,0],[0.5,0],[1,0],[0,0.5],[1,0.5],[0,1],[0.5,1],[1,1]];fillColor=#ffcc99;strokeColor=#36393d;" parent="1" vertex="1">
          <mxGeometry x="488" y="590" width="142" height="30" as="geometry" />
        </mxCell>
        <mxCell id="NMYbpX2E4DWO_N-_EvTO-38" value="Danh sách đơn đặt hàng&amp;nbsp;" style="text;html=1;strokeColor=#36393d;fillColor=#ffcc99;align=center;verticalAlign=middle;whiteSpace=wrap;rounded=0;" parent="1" vertex="1">
          <mxGeometry x="519" y="590" width="111" height="30" as="geometry" />
        </mxCell>
        <mxCell id="NMYbpX2E4DWO_N-_EvTO-60" value="2.0" style="swimlane;fontStyle=0;childLayout=stackLayout;horizontal=1;startSize=20;fillColor=#60a917;horizontalStack=0;resizeParent=1;resizeParentMax=0;resizeLast=0;collapsible=0;marginBottom=0;swimlaneFillColor=#ffffff;rounded=1;rotation=0;arcSize=41;strokeColor=#2D7600;fontColor=#ffffff;" parent="1" vertex="1">
          <mxGeometry x="740" y="210" width="180" height="110" as="geometry" />
        </mxCell>
        <mxCell id="NMYbpX2E4DWO_N-_EvTO-66" value="&lt;font color=&quot;#003300&quot;&gt;&lt;span style=&quot;caret-color: rgb(0, 51, 0); font-size: 20px;&quot;&gt;&lt;b&gt;Quản lý sản phẩm&lt;/b&gt;&lt;/span&gt;&lt;/font&gt;" style="text;html=1;strokeColor=none;fillColor=none;align=center;verticalAlign=middle;whiteSpace=wrap;rounded=0;" parent="NMYbpX2E4DWO_N-_EvTO-60" vertex="1">
          <mxGeometry y="20" width="180" height="90" as="geometry" />
        </mxCell>
        <mxCell id="NMYbpX2E4DWO_N-_EvTO-61" value="3.0" style="swimlane;fontStyle=0;childLayout=stackLayout;horizontal=1;startSize=20;fillColor=#60a917;horizontalStack=0;resizeParent=1;resizeParentMax=0;resizeLast=0;collapsible=0;marginBottom=0;swimlaneFillColor=#ffffff;rounded=1;rotation=0;arcSize=41;strokeColor=#2D7600;fontColor=#ffffff;" parent="1" vertex="1">
          <mxGeometry x="730" y="530" width="180" height="110" as="geometry" />
        </mxCell>
        <mxCell id="NMYbpX2E4DWO_N-_EvTO-67" value="&lt;font color=&quot;#003300&quot;&gt;&lt;span style=&quot;caret-color: rgb(0, 51, 0); font-size: 20px;&quot;&gt;&lt;b&gt;Quản lý kho&lt;/b&gt;&lt;/span&gt;&lt;/font&gt;" style="text;html=1;strokeColor=none;fillColor=none;align=center;verticalAlign=middle;whiteSpace=wrap;rounded=0;" parent="NMYbpX2E4DWO_N-_EvTO-61" vertex="1">
          <mxGeometry y="20" width="180" height="90" as="geometry" />
        </mxCell>
        <mxCell id="NMYbpX2E4DWO_N-_EvTO-62" value="4.0" style="swimlane;fontStyle=0;childLayout=stackLayout;horizontal=1;startSize=20;fillColor=#60a917;horizontalStack=0;resizeParent=1;resizeParentMax=0;resizeLast=0;collapsible=0;marginBottom=0;swimlaneFillColor=#ffffff;rounded=1;rotation=0;arcSize=41;strokeColor=#2D7600;fontColor=#ffffff;" parent="1" vertex="1">
          <mxGeometry x="248" y="540" width="180" height="110" as="geometry" />
        </mxCell>
        <mxCell id="NMYbpX2E4DWO_N-_EvTO-68" value="&lt;font color=&quot;#003300&quot;&gt;&lt;span style=&quot;caret-color: rgb(0, 51, 0); font-size: 20px;&quot;&gt;&lt;b&gt;Thanh toán&lt;/b&gt;&lt;/span&gt;&lt;/font&gt;" style="text;html=1;strokeColor=none;fillColor=none;align=center;verticalAlign=middle;whiteSpace=wrap;rounded=0;" parent="NMYbpX2E4DWO_N-_EvTO-62" vertex="1">
          <mxGeometry y="20" width="180" height="90" as="geometry" />
        </mxCell>
        <mxCell id="NMYbpX2E4DWO_N-_EvTO-63" value="5.0" style="swimlane;fontStyle=0;childLayout=stackLayout;horizontal=1;startSize=20;fillColor=#60a917;horizontalStack=0;resizeParent=1;resizeParentMax=0;resizeLast=0;collapsible=0;marginBottom=0;swimlaneFillColor=#ffffff;rounded=1;rotation=0;arcSize=41;strokeColor=#2D7600;fontColor=#ffffff;" parent="1" vertex="1">
          <mxGeometry x="-228.5" y="530" width="180" height="110" as="geometry" />
        </mxCell>
        <mxCell id="NMYbpX2E4DWO_N-_EvTO-70" value="&lt;font color=&quot;#003300&quot;&gt;&lt;span style=&quot;caret-color: rgb(0, 51, 0); font-size: 20px;&quot;&gt;&lt;b&gt;Báo cáo thống kê&lt;/b&gt;&lt;/span&gt;&lt;/font&gt;" style="text;html=1;strokeColor=none;fillColor=none;align=center;verticalAlign=middle;whiteSpace=wrap;rounded=0;" parent="NMYbpX2E4DWO_N-_EvTO-63" vertex="1">
          <mxGeometry y="20" width="180" height="90" as="geometry" />
        </mxCell>
        <mxCell id="NMYbpX2E4DWO_N-_EvTO-64" value="KHÁCH&amp;nbsp;" style="rounded=0;whiteSpace=wrap;html=1;fillColor=#ffcd28;strokeColor=#d79b00;gradientColor=#ffa500;" parent="1" vertex="1">
          <mxGeometry x="-239" y="241" width="120" height="58" as="geometry" />
        </mxCell>
        <mxCell id="NMYbpX2E4DWO_N-_EvTO-65" value="NHÀ CUNG CẤP" style="rounded=0;whiteSpace=wrap;html=1;fillColor=#ffcd28;strokeColor=#d79b00;gradientColor=#ffa500;" parent="1" vertex="1">
          <mxGeometry x="1030" y="560" width="120" height="58" as="geometry" />
        </mxCell>
      </root>
    </mxGraphModel>
  </diagram>
  <diagram id="eSapxPnXqTyM7FYnHUR0" name="DFD mức 2">
    <mxGraphModel dx="2848" dy="1232" grid="1" gridSize="10" guides="1" tooltips="1" connect="1" arrows="1" fold="1" page="1" pageScale="1" pageWidth="850" pageHeight="1100" math="0" shadow="0">
      <root>
        <mxCell id="0" />
        <mxCell id="1" parent="0" />
        <mxCell id="mIXzgjN__1iH5T7xe_jD-64" value="Thông tin&lt;br&gt;thanh toán" style="edgeStyle=orthogonalEdgeStyle;rounded=0;orthogonalLoop=1;jettySize=auto;html=1;exitX=0.5;exitY=1;exitDx=0;exitDy=0;" parent="1" edge="1">
          <mxGeometry relative="1" as="geometry">
            <mxPoint x="390.1379310344828" y="499.9999999999998" as="targetPoint" />
            <mxPoint x="390" y="390" as="sourcePoint" />
          </mxGeometry>
        </mxCell>
        <mxCell id="mIXzgjN__1iH5T7xe_jD-57" value="Khách hàng" style="rounded=0;whiteSpace=wrap;html=1;fontFamily=Times New Roman;fontSize=14;" parent="1" vertex="1">
          <mxGeometry x="-520" y="300" width="120" height="60" as="geometry" />
        </mxCell>
        <mxCell id="mIXzgjN__1iH5T7xe_jD-58" value="Yêu cầu mua hàng" style="endArrow=classic;html=1;rounded=0;exitX=1;exitY=0.25;exitDx=0;exitDy=0;entryX=0.012;entryY=0.111;entryDx=0;entryDy=0;entryPerimeter=0;" parent="1" source="mIXzgjN__1iH5T7xe_jD-57" edge="1">
          <mxGeometry width="50" height="50" relative="1" as="geometry">
            <mxPoint x="-320" y="242" as="sourcePoint" />
            <mxPoint x="-167.84000000000015" y="317.77" as="targetPoint" />
          </mxGeometry>
        </mxCell>
        <mxCell id="mIXzgjN__1iH5T7xe_jD-59" value="Thông tin khách hàng" style="endArrow=classic;html=1;rounded=0;exitX=1;exitY=0.75;exitDx=0;exitDy=0;entryX=0;entryY=0.5;entryDx=0;entryDy=0;" parent="1" source="mIXzgjN__1iH5T7xe_jD-57" edge="1">
          <mxGeometry width="50" height="50" relative="1" as="geometry">
            <mxPoint x="-500" y="389.26" as="sourcePoint" />
            <mxPoint x="-170" y="345" as="targetPoint" />
          </mxGeometry>
        </mxCell>
        <mxCell id="mIXzgjN__1iH5T7xe_jD-60" value="Thông tin đơn hàng" style="endArrow=classic;html=1;rounded=0;entryX=0.5;entryY=0;entryDx=0;entryDy=0;edgeStyle=orthogonalEdgeStyle;exitX=0.5;exitY=0;exitDx=0;exitDy=0;" parent="1" target="mIXzgjN__1iH5T7xe_jD-57" edge="1">
          <mxGeometry width="50" height="50" relative="1" as="geometry">
            <mxPoint x="390" y="270" as="sourcePoint" />
            <mxPoint x="-250" y="250" as="targetPoint" />
            <Array as="points">
              <mxPoint x="390" y="240" />
              <mxPoint x="-460" y="240" />
            </Array>
          </mxGeometry>
        </mxCell>
        <mxCell id="mIXzgjN__1iH5T7xe_jD-61" value="Thông tin đơn hàng" style="edgeStyle=orthogonalEdgeStyle;rounded=0;orthogonalLoop=1;jettySize=auto;html=1;exitX=1;exitY=0.5;exitDx=0;exitDy=0;entryX=0;entryY=0.5;entryDx=0;entryDy=0;" parent="1" edge="1">
          <mxGeometry relative="1" as="geometry">
            <mxPoint x="10" y="345" as="sourcePoint" />
            <mxPoint x="300" y="345" as="targetPoint" />
          </mxGeometry>
        </mxCell>
        <mxCell id="mIXzgjN__1iH5T7xe_jD-63" value="Thông tin&lt;br&gt;sản phẩm" style="edgeStyle=orthogonalEdgeStyle;rounded=0;orthogonalLoop=1;jettySize=auto;html=1;exitX=1;exitY=0.5;exitDx=0;exitDy=0;entryX=0;entryY=0.5;entryDx=0;entryDy=0;" parent="1" edge="1">
          <mxGeometry relative="1" as="geometry">
            <mxPoint x="620" y="345" as="targetPoint" />
            <mxPoint x="480" y="345" as="sourcePoint" />
            <mxPoint as="offset" />
          </mxGeometry>
        </mxCell>
        <mxCell id="mIXzgjN__1iH5T7xe_jD-80" style="edgeStyle=orthogonalEdgeStyle;rounded=0;orthogonalLoop=1;jettySize=auto;html=1;exitX=0.5;exitY=1;exitDx=0;exitDy=0;entryX=1;entryY=0.25;entryDx=0;entryDy=0;" parent="1" source="vHo_rE_Bp0TU5aitMGvb-10" edge="1">
          <mxGeometry relative="1" as="geometry">
            <mxPoint x="1570" y="300" as="sourcePoint" />
            <mxPoint x="1465" y="457.5" as="targetPoint" />
            <Array as="points">
              <mxPoint x="1570" y="460" />
              <mxPoint x="1468" y="460" />
              <mxPoint x="1468" y="458" />
            </Array>
          </mxGeometry>
        </mxCell>
        <mxCell id="mIXzgjN__1iH5T7xe_jD-81" value="Số lượng sản phẩm" style="edgeLabel;html=1;align=center;verticalAlign=middle;resizable=0;points=[];" parent="mIXzgjN__1iH5T7xe_jD-80" vertex="1" connectable="0">
          <mxGeometry x="-0.1477" y="-5" relative="1" as="geometry">
            <mxPoint x="-14" y="-9" as="offset" />
          </mxGeometry>
        </mxCell>
        <mxCell id="mIXzgjN__1iH5T7xe_jD-78" value="Thông tin&lt;br&gt;sản phẩm" style="rounded=0;orthogonalLoop=1;jettySize=auto;html=1;entryX=0;entryY=0.25;entryDx=0;entryDy=0;" parent="1" edge="1">
          <mxGeometry relative="1" as="geometry">
            <mxPoint x="910" y="237" as="sourcePoint" />
            <mxPoint x="1090" y="237.5" as="targetPoint" />
          </mxGeometry>
        </mxCell>
        <mxCell id="mIXzgjN__1iH5T7xe_jD-79" value="Thông tin sản phẩm" style="edgeStyle=orthogonalEdgeStyle;rounded=0;orthogonalLoop=1;jettySize=auto;html=1;exitX=1;exitY=0.25;exitDx=0;exitDy=0;entryX=0;entryY=0.25;entryDx=0;entryDy=0;" parent="1" edge="1">
          <mxGeometry relative="1" as="geometry">
            <mxPoint x="1270" y="237.5" as="sourcePoint" />
            <mxPoint x="1480" y="237.5" as="targetPoint" />
          </mxGeometry>
        </mxCell>
        <mxCell id="mIXzgjN__1iH5T7xe_jD-99" value="Số lượng sản phẩm&lt;br&gt;cần nhập" style="edgeStyle=orthogonalEdgeStyle;rounded=0;orthogonalLoop=1;jettySize=auto;html=1;entryX=0;entryY=0.5;entryDx=0;entryDy=0;" parent="1" edge="1">
          <mxGeometry relative="1" as="geometry">
            <mxPoint x="1070" y="860" as="sourcePoint" />
            <mxPoint x="1180" y="1045" as="targetPoint" />
            <Array as="points">
              <mxPoint x="1070" y="1045" />
            </Array>
          </mxGeometry>
        </mxCell>
        <mxCell id="mIXzgjN__1iH5T7xe_jD-96" value="Số lượng sản phẩm&lt;br&gt;đơn hàng" style="rounded=0;orthogonalLoop=1;jettySize=auto;html=1;entryX=0;entryY=0.25;entryDx=0;entryDy=0;" parent="1" edge="1">
          <mxGeometry relative="1" as="geometry">
            <mxPoint x="985" y="797.5" as="targetPoint" />
            <mxPoint x="795" y="798" as="sourcePoint" />
          </mxGeometry>
        </mxCell>
        <mxCell id="mIXzgjN__1iH5T7xe_jD-97" value="Số lượng sản phẩm&lt;br&gt;đơn hàng" style="rounded=0;orthogonalLoop=1;jettySize=auto;html=1;entryX=0;entryY=0.25;entryDx=0;entryDy=0;exitX=1;exitY=0.25;exitDx=0;exitDy=0;" parent="1" edge="1">
          <mxGeometry relative="1" as="geometry">
            <mxPoint x="1375" y="797.5" as="targetPoint" />
            <mxPoint x="1165" y="797.5" as="sourcePoint" />
          </mxGeometry>
        </mxCell>
        <mxCell id="mIXzgjN__1iH5T7xe_jD-98" value="Số lượng xuất&amp;nbsp;" style="rounded=0;orthogonalLoop=1;jettySize=auto;html=1;exitX=1;exitY=0.25;exitDx=0;exitDy=0;" parent="1" edge="1">
          <mxGeometry relative="1" as="geometry">
            <mxPoint x="1755" y="798" as="targetPoint" />
            <mxPoint x="1555" y="797.5" as="sourcePoint" />
          </mxGeometry>
        </mxCell>
        <mxCell id="mIXzgjN__1iH5T7xe_jD-102" value="Số lượng&lt;br&gt;nhập hàng" style="edgeStyle=orthogonalEdgeStyle;rounded=0;orthogonalLoop=1;jettySize=auto;html=1;exitX=0;exitY=0.75;exitDx=0;exitDy=0;entryX=1;entryY=0.5;entryDx=0;entryDy=0;" parent="1" source="mIXzgjN__1iH5T7xe_jD-100" edge="1">
          <mxGeometry x="-0.4783" y="5" relative="1" as="geometry">
            <mxPoint as="offset" />
            <mxPoint x="1360" y="1045" as="targetPoint" />
          </mxGeometry>
        </mxCell>
        <mxCell id="mIXzgjN__1iH5T7xe_jD-100" value="Nhà cung cấp" style="rounded=0;whiteSpace=wrap;html=1;fontFamily=Times New Roman;fontSize=14;" parent="1" vertex="1">
          <mxGeometry x="1475" y="1000" width="120" height="60" as="geometry" />
        </mxCell>
        <mxCell id="mIXzgjN__1iH5T7xe_jD-101" value="Yêu cầu &lt;br&gt;nhập hàng" style="edgeStyle=orthogonalEdgeStyle;rounded=0;orthogonalLoop=1;jettySize=auto;html=1;exitX=1;exitY=0.25;exitDx=0;exitDy=0;entryX=-0.026;entryY=0.441;entryDx=0;entryDy=0;entryPerimeter=0;" parent="1" target="mIXzgjN__1iH5T7xe_jD-100" edge="1">
          <mxGeometry x="-0.3799" y="8" relative="1" as="geometry">
            <mxPoint y="1" as="offset" />
            <mxPoint x="1360" y="1027.5" as="sourcePoint" />
          </mxGeometry>
        </mxCell>
        <mxCell id="mIXzgjN__1iH5T7xe_jD-103" value="Thông tin&lt;br&gt;khách hàng" style="rounded=0;orthogonalLoop=1;jettySize=auto;html=1;entryX=0.624;entryY=0.985;entryDx=0;entryDy=0;entryPerimeter=0;" parent="1" edge="1">
          <mxGeometry relative="1" as="geometry">
            <mxPoint x="412.32000000000016" y="388.20000000000005" as="targetPoint" />
            <mxPoint x="500" y="500" as="sourcePoint" />
          </mxGeometry>
        </mxCell>
        <mxCell id="mIXzgjN__1iH5T7xe_jD-118" value="Hóa đơn xác nhận&lt;br&gt;thanh toán" style="edgeStyle=orthogonalEdgeStyle;rounded=0;orthogonalLoop=1;jettySize=auto;html=1;exitX=0.5;exitY=1;exitDx=0;exitDy=0;entryX=1;entryY=0.5;entryDx=0;entryDy=0;" parent="1" edge="1">
          <mxGeometry relative="1" as="geometry">
            <mxPoint x="440" y="820" as="sourcePoint" />
            <mxPoint x="325" y="1005" as="targetPoint" />
            <Array as="points">
              <mxPoint x="440" y="1005" />
            </Array>
          </mxGeometry>
        </mxCell>
        <mxCell id="mIXzgjN__1iH5T7xe_jD-121" value="Báo cáo đơn hàng" style="edgeStyle=orthogonalEdgeStyle;rounded=0;orthogonalLoop=1;jettySize=auto;html=1;exitX=0.5;exitY=1;exitDx=0;exitDy=0;" parent="1" edge="1">
          <mxGeometry relative="1" as="geometry">
            <mxPoint x="234.28571428571468" y="1160" as="targetPoint" />
            <mxPoint x="235" y="1050" as="sourcePoint" />
          </mxGeometry>
        </mxCell>
        <mxCell id="mIXzgjN__1iH5T7xe_jD-116" value="Thông tin&amp;nbsp;&lt;br&gt;hóa đơn" style="rounded=0;orthogonalLoop=1;jettySize=auto;html=1;entryX=0;entryY=0.25;entryDx=0;entryDy=0;" parent="1" edge="1">
          <mxGeometry relative="1" as="geometry">
            <mxPoint x="-50" y="757.5" as="targetPoint" />
            <mxPoint x="-280" y="759.29" as="sourcePoint" />
          </mxGeometry>
        </mxCell>
        <mxCell id="mIXzgjN__1iH5T7xe_jD-117" value="Hóa đơn thanh toán" style="edgeStyle=orthogonalEdgeStyle;rounded=0;orthogonalLoop=1;jettySize=auto;html=1;exitX=1;exitY=0.25;exitDx=0;exitDy=0;entryX=0;entryY=0.25;entryDx=0;entryDy=0;" parent="1" edge="1">
          <mxGeometry relative="1" as="geometry">
            <mxPoint x="130" y="757.5" as="sourcePoint" />
            <mxPoint x="350" y="757.5" as="targetPoint" />
          </mxGeometry>
        </mxCell>
        <mxCell id="mIXzgjN__1iH5T7xe_jD-136" value="Dữ liệu số lượng&lt;br&gt;sản phẩm" style="edgeStyle=orthogonalEdgeStyle;rounded=0;orthogonalLoop=1;jettySize=auto;html=1;exitX=0.5;exitY=1;exitDx=0;exitDy=0;entryX=0;entryY=0.5;entryDx=0;entryDy=0;" parent="1" edge="1">
          <mxGeometry relative="1" as="geometry">
            <mxPoint x="-1070" y="800" as="sourcePoint" />
            <mxPoint x="-940" y="1015" as="targetPoint" />
            <Array as="points">
              <mxPoint x="-1070" y="1015" />
            </Array>
          </mxGeometry>
        </mxCell>
        <mxCell id="mIXzgjN__1iH5T7xe_jD-134" value="Thông tin&amp;nbsp;&lt;br&gt;hóa đơn" style="rounded=0;orthogonalLoop=1;jettySize=auto;html=1;entryX=0.009;entryY=0.153;entryDx=0;entryDy=0;entryPerimeter=0;" parent="1" edge="1">
          <mxGeometry relative="1" as="geometry">
            <mxPoint x="-1158.38" y="730.71" as="targetPoint" />
            <mxPoint x="-1390" y="730" as="sourcePoint" />
          </mxGeometry>
        </mxCell>
        <mxCell id="mIXzgjN__1iH5T7xe_jD-135" value="Số lượng sản phẩm tồn kho" style="rounded=0;orthogonalLoop=1;jettySize=auto;html=1;entryX=0;entryY=0.5;entryDx=0;entryDy=0;" parent="1" edge="1">
          <mxGeometry relative="1" as="geometry">
            <mxPoint x="-1160" y="755" as="targetPoint" />
            <mxPoint x="-1390" y="755" as="sourcePoint" />
          </mxGeometry>
        </mxCell>
        <mxCell id="mIXzgjN__1iH5T7xe_jD-137" value="Dữ liệu đơn hàng" style="edgeStyle=orthogonalEdgeStyle;rounded=0;orthogonalLoop=1;jettySize=auto;html=1;exitX=1;exitY=0.5;exitDx=0;exitDy=0;entryX=0;entryY=0.5;entryDx=0;entryDy=0;" parent="1" edge="1">
          <mxGeometry relative="1" as="geometry">
            <mxPoint x="-980" y="755" as="sourcePoint" />
            <mxPoint x="-720" y="755" as="targetPoint" />
          </mxGeometry>
        </mxCell>
        <mxCell id="2Gat_zaOvvra89zRSrhs-1" value="KHÁCH&amp;nbsp;" style="rounded=0;whiteSpace=wrap;html=1;fillColor=#ffcd28;strokeColor=#d79b00;gradientColor=#ffa500;" vertex="1" parent="1">
          <mxGeometry x="-520" y="302" width="120" height="58" as="geometry" />
        </mxCell>
        <mxCell id="vHo_rE_Bp0TU5aitMGvb-1" value="1.1" style="swimlane;fontStyle=0;childLayout=stackLayout;horizontal=1;startSize=20;fillColor=#60a917;horizontalStack=0;resizeParent=1;resizeParentMax=0;resizeLast=0;collapsible=0;marginBottom=0;swimlaneFillColor=#ffffff;rounded=1;rotation=0;arcSize=41;strokeColor=#2D7600;fontColor=#ffffff;" vertex="1" parent="1">
          <mxGeometry x="-170" y="278" width="180" height="110" as="geometry" />
        </mxCell>
        <mxCell id="vHo_rE_Bp0TU5aitMGvb-2" value="&lt;span style=&quot;font-size: 20px;&quot;&gt;&lt;b&gt;Nhận yêu cầu đặt hàng&lt;/b&gt;&lt;/span&gt;" style="text;html=1;strokeColor=none;fillColor=none;align=center;verticalAlign=middle;whiteSpace=wrap;rounded=0;" vertex="1" parent="vHo_rE_Bp0TU5aitMGvb-1">
          <mxGeometry y="20" width="180" height="90" as="geometry" />
        </mxCell>
        <mxCell id="vHo_rE_Bp0TU5aitMGvb-3" value="1.2" style="swimlane;fontStyle=0;childLayout=stackLayout;horizontal=1;startSize=20;fillColor=#60a917;horizontalStack=0;resizeParent=1;resizeParentMax=0;resizeLast=0;collapsible=0;marginBottom=0;swimlaneFillColor=#ffffff;rounded=1;rotation=0;arcSize=41;strokeColor=#2D7600;fontColor=#ffffff;" vertex="1" parent="1">
          <mxGeometry x="300" y="277" width="180" height="110" as="geometry" />
        </mxCell>
        <mxCell id="vHo_rE_Bp0TU5aitMGvb-4" value="&lt;span style=&quot;font-size: 20px;&quot;&gt;&lt;b&gt;Xác nhận đơn hàng&lt;/b&gt;&lt;/span&gt;" style="text;html=1;strokeColor=none;fillColor=none;align=center;verticalAlign=middle;whiteSpace=wrap;rounded=0;" vertex="1" parent="vHo_rE_Bp0TU5aitMGvb-3">
          <mxGeometry y="20" width="180" height="90" as="geometry" />
        </mxCell>
        <mxCell id="vHo_rE_Bp0TU5aitMGvb-5" value="2.1" style="swimlane;fontStyle=0;childLayout=stackLayout;horizontal=1;startSize=20;fillColor=#60a917;horizontalStack=0;resizeParent=1;resizeParentMax=0;resizeLast=0;collapsible=0;marginBottom=0;swimlaneFillColor=#ffffff;rounded=1;rotation=0;arcSize=41;strokeColor=#2D7600;fontColor=#ffffff;" vertex="1" parent="1">
          <mxGeometry x="1095" y="185" width="180" height="110" as="geometry" />
        </mxCell>
        <mxCell id="vHo_rE_Bp0TU5aitMGvb-6" value="&lt;span style=&quot;font-size: 20px;&quot;&gt;&lt;b&gt;Nhận thông tin sản phẩm&lt;/b&gt;&lt;/span&gt;" style="text;html=1;strokeColor=none;fillColor=none;align=center;verticalAlign=middle;whiteSpace=wrap;rounded=0;" vertex="1" parent="vHo_rE_Bp0TU5aitMGvb-5">
          <mxGeometry y="20" width="180" height="90" as="geometry" />
        </mxCell>
        <mxCell id="vHo_rE_Bp0TU5aitMGvb-9" value="2.2" style="swimlane;fontStyle=0;childLayout=stackLayout;horizontal=1;startSize=20;fillColor=#60a917;horizontalStack=0;resizeParent=1;resizeParentMax=0;resizeLast=0;collapsible=0;marginBottom=0;swimlaneFillColor=#ffffff;rounded=1;rotation=0;arcSize=41;strokeColor=#2D7600;fontColor=#ffffff;" vertex="1" parent="1">
          <mxGeometry x="1480" y="185" width="180" height="110" as="geometry" />
        </mxCell>
        <mxCell id="vHo_rE_Bp0TU5aitMGvb-10" value="&lt;span style=&quot;font-size: 20px;&quot;&gt;&lt;b&gt;Cập nhật thông tin sản phẩm&lt;/b&gt;&lt;/span&gt;" style="text;html=1;strokeColor=none;fillColor=none;align=center;verticalAlign=middle;whiteSpace=wrap;rounded=0;" vertex="1" parent="vHo_rE_Bp0TU5aitMGvb-9">
          <mxGeometry y="20" width="180" height="90" as="geometry" />
        </mxCell>
        <mxCell id="vHo_rE_Bp0TU5aitMGvb-11" value="2.3" style="swimlane;fontStyle=0;childLayout=stackLayout;horizontal=1;startSize=20;fillColor=#60a917;horizontalStack=0;resizeParent=1;resizeParentMax=0;resizeLast=0;collapsible=0;marginBottom=0;swimlaneFillColor=#ffffff;rounded=1;rotation=0;arcSize=41;strokeColor=#2D7600;fontColor=#ffffff;" vertex="1" parent="1">
          <mxGeometry x="1280" y="410" width="180" height="110" as="geometry" />
        </mxCell>
        <mxCell id="vHo_rE_Bp0TU5aitMGvb-12" value="&lt;span style=&quot;font-size: 20px;&quot;&gt;&lt;b&gt;Hiện danh sách sản phẩm&amp;nbsp;&lt;/b&gt;&lt;/span&gt;" style="text;html=1;strokeColor=none;fillColor=none;align=center;verticalAlign=middle;whiteSpace=wrap;rounded=0;" vertex="1" parent="vHo_rE_Bp0TU5aitMGvb-11">
          <mxGeometry y="20" width="180" height="90" as="geometry" />
        </mxCell>
        <mxCell id="vHo_rE_Bp0TU5aitMGvb-14" value="3.1" style="swimlane;fontStyle=0;childLayout=stackLayout;horizontal=1;startSize=20;fillColor=#60a917;horizontalStack=0;resizeParent=1;resizeParentMax=0;resizeLast=0;collapsible=0;marginBottom=0;swimlaneFillColor=#ffffff;rounded=1;rotation=0;arcSize=41;strokeColor=#2D7600;fontColor=#ffffff;" vertex="1" parent="1">
          <mxGeometry x="990" y="745" width="180" height="110" as="geometry" />
        </mxCell>
        <mxCell id="vHo_rE_Bp0TU5aitMGvb-15" value="&lt;span style=&quot;font-size: 20px;&quot;&gt;&lt;b&gt;Nhận số lượng&lt;/b&gt;&lt;/span&gt;" style="text;html=1;strokeColor=none;fillColor=none;align=center;verticalAlign=middle;whiteSpace=wrap;rounded=0;" vertex="1" parent="vHo_rE_Bp0TU5aitMGvb-14">
          <mxGeometry y="20" width="180" height="90" as="geometry" />
        </mxCell>
        <mxCell id="vHo_rE_Bp0TU5aitMGvb-16" value="3.2" style="swimlane;fontStyle=0;childLayout=stackLayout;horizontal=1;startSize=20;fillColor=#60a917;horizontalStack=0;resizeParent=1;resizeParentMax=0;resizeLast=0;collapsible=0;marginBottom=0;swimlaneFillColor=#ffffff;rounded=1;rotation=0;arcSize=41;strokeColor=#2D7600;fontColor=#ffffff;" vertex="1" parent="1">
          <mxGeometry x="1380" y="745" width="180" height="110" as="geometry" />
        </mxCell>
        <mxCell id="vHo_rE_Bp0TU5aitMGvb-17" value="&lt;span style=&quot;font-size: 20px;&quot;&gt;&lt;b&gt;Yêu cầu xuất kho&lt;/b&gt;&lt;/span&gt;" style="text;html=1;strokeColor=none;fillColor=none;align=center;verticalAlign=middle;whiteSpace=wrap;rounded=0;" vertex="1" parent="vHo_rE_Bp0TU5aitMGvb-16">
          <mxGeometry y="20" width="180" height="90" as="geometry" />
        </mxCell>
        <mxCell id="vHo_rE_Bp0TU5aitMGvb-18" value="3.3" style="swimlane;fontStyle=0;childLayout=stackLayout;horizontal=1;startSize=20;fillColor=#60a917;horizontalStack=0;resizeParent=1;resizeParentMax=0;resizeLast=0;collapsible=0;marginBottom=0;swimlaneFillColor=#ffffff;rounded=1;rotation=0;arcSize=41;strokeColor=#2D7600;fontColor=#ffffff;" vertex="1" parent="1">
          <mxGeometry x="1180" y="990" width="180" height="110" as="geometry" />
        </mxCell>
        <mxCell id="vHo_rE_Bp0TU5aitMGvb-19" value="&lt;span style=&quot;font-size: 20px;&quot;&gt;&lt;b&gt;Yêu cầu nhập hàng&lt;/b&gt;&lt;/span&gt;" style="text;html=1;strokeColor=none;fillColor=none;align=center;verticalAlign=middle;whiteSpace=wrap;rounded=0;" vertex="1" parent="vHo_rE_Bp0TU5aitMGvb-18">
          <mxGeometry y="20" width="180" height="90" as="geometry" />
        </mxCell>
        <mxCell id="vHo_rE_Bp0TU5aitMGvb-20" value="NHÀ CUNG CẤP" style="rounded=0;whiteSpace=wrap;html=1;fillColor=#ffcd28;strokeColor=#d79b00;gradientColor=#ffa500;" vertex="1" parent="1">
          <mxGeometry x="1475" y="1000" width="120" height="58" as="geometry" />
        </mxCell>
        <mxCell id="vHo_rE_Bp0TU5aitMGvb-22" value="4.1" style="swimlane;fontStyle=0;childLayout=stackLayout;horizontal=1;startSize=20;fillColor=#60a917;horizontalStack=0;resizeParent=1;resizeParentMax=0;resizeLast=0;collapsible=0;marginBottom=0;swimlaneFillColor=#ffffff;rounded=1;rotation=0;arcSize=41;strokeColor=#2D7600;fontColor=#ffffff;" vertex="1" parent="1">
          <mxGeometry x="-50" y="705" width="180" height="110" as="geometry" />
        </mxCell>
        <mxCell id="vHo_rE_Bp0TU5aitMGvb-23" value="&lt;span style=&quot;font-size: 20px;&quot;&gt;&lt;b&gt;Tiếp nhận thông tin thanh toán&lt;/b&gt;&lt;/span&gt;" style="text;html=1;strokeColor=none;fillColor=none;align=center;verticalAlign=middle;whiteSpace=wrap;rounded=0;" vertex="1" parent="vHo_rE_Bp0TU5aitMGvb-22">
          <mxGeometry y="20" width="180" height="90" as="geometry" />
        </mxCell>
        <mxCell id="vHo_rE_Bp0TU5aitMGvb-24" value="4.2" style="swimlane;fontStyle=0;childLayout=stackLayout;horizontal=1;startSize=20;fillColor=#60a917;horizontalStack=0;resizeParent=1;resizeParentMax=0;resizeLast=0;collapsible=0;marginBottom=0;swimlaneFillColor=#ffffff;rounded=1;rotation=0;arcSize=41;strokeColor=#2D7600;fontColor=#ffffff;" vertex="1" parent="1">
          <mxGeometry x="350" y="705" width="180" height="110" as="geometry" />
        </mxCell>
        <mxCell id="vHo_rE_Bp0TU5aitMGvb-25" value="&lt;span style=&quot;font-size: 20px;&quot;&gt;&lt;b&gt;Xác nhận thông tin&lt;/b&gt;&lt;/span&gt;" style="text;html=1;strokeColor=none;fillColor=none;align=center;verticalAlign=middle;whiteSpace=wrap;rounded=0;" vertex="1" parent="vHo_rE_Bp0TU5aitMGvb-24">
          <mxGeometry y="20" width="180" height="90" as="geometry" />
        </mxCell>
        <mxCell id="vHo_rE_Bp0TU5aitMGvb-26" value="4.3" style="swimlane;fontStyle=0;childLayout=stackLayout;horizontal=1;startSize=20;fillColor=#60a917;horizontalStack=0;resizeParent=1;resizeParentMax=0;resizeLast=0;collapsible=0;marginBottom=0;swimlaneFillColor=#ffffff;rounded=1;rotation=0;arcSize=41;strokeColor=#2D7600;fontColor=#ffffff;" vertex="1" parent="1">
          <mxGeometry x="140" y="940" width="180" height="110" as="geometry" />
        </mxCell>
        <mxCell id="vHo_rE_Bp0TU5aitMGvb-27" value="&lt;span style=&quot;font-size: 20px;&quot;&gt;&lt;b&gt;Gửi thông tin thanh toán&lt;/b&gt;&lt;/span&gt;" style="text;html=1;strokeColor=none;fillColor=none;align=center;verticalAlign=middle;whiteSpace=wrap;rounded=0;" vertex="1" parent="vHo_rE_Bp0TU5aitMGvb-26">
          <mxGeometry y="20" width="180" height="90" as="geometry" />
        </mxCell>
        <mxCell id="vHo_rE_Bp0TU5aitMGvb-28" value="5.1" style="swimlane;fontStyle=0;childLayout=stackLayout;horizontal=1;startSize=20;fillColor=#60a917;horizontalStack=0;resizeParent=1;resizeParentMax=0;resizeLast=0;collapsible=0;marginBottom=0;swimlaneFillColor=#ffffff;rounded=1;rotation=0;arcSize=41;strokeColor=#2D7600;fontColor=#ffffff;" vertex="1" parent="1">
          <mxGeometry x="-1160" y="680" width="180" height="110" as="geometry" />
        </mxCell>
        <mxCell id="vHo_rE_Bp0TU5aitMGvb-29" value="&lt;span style=&quot;font-size: 20px;&quot;&gt;&lt;b&gt;Tiếp nhận dữ liệu&lt;/b&gt;&lt;/span&gt;" style="text;html=1;strokeColor=none;fillColor=none;align=center;verticalAlign=middle;whiteSpace=wrap;rounded=0;" vertex="1" parent="vHo_rE_Bp0TU5aitMGvb-28">
          <mxGeometry y="20" width="180" height="90" as="geometry" />
        </mxCell>
        <mxCell id="vHo_rE_Bp0TU5aitMGvb-31" value="5.2" style="swimlane;fontStyle=0;childLayout=stackLayout;horizontal=1;startSize=20;fillColor=#60a917;horizontalStack=0;resizeParent=1;resizeParentMax=0;resizeLast=0;collapsible=0;marginBottom=0;swimlaneFillColor=#ffffff;rounded=1;rotation=0;arcSize=41;strokeColor=#2D7600;fontColor=#ffffff;" vertex="1" parent="1">
          <mxGeometry x="-720" y="690" width="180" height="110" as="geometry" />
        </mxCell>
        <mxCell id="vHo_rE_Bp0TU5aitMGvb-32" value="&lt;span style=&quot;font-size: 20px;&quot;&gt;&lt;b&gt;Tạo báo cáo thống kê đơn đặt hàng&lt;/b&gt;&lt;/span&gt;" style="text;html=1;strokeColor=none;fillColor=none;align=center;verticalAlign=middle;whiteSpace=wrap;rounded=0;" vertex="1" parent="vHo_rE_Bp0TU5aitMGvb-31">
          <mxGeometry y="20" width="180" height="90" as="geometry" />
        </mxCell>
        <mxCell id="vHo_rE_Bp0TU5aitMGvb-34" value="5.3" style="swimlane;fontStyle=0;childLayout=stackLayout;horizontal=1;startSize=20;fillColor=#60a917;horizontalStack=0;resizeParent=1;resizeParentMax=0;resizeLast=0;collapsible=0;marginBottom=0;swimlaneFillColor=#ffffff;rounded=1;rotation=0;arcSize=50;strokeColor=#2D7600;fontColor=#ffffff;" vertex="1" parent="1">
          <mxGeometry x="-940" y="960" width="180" height="110" as="geometry" />
        </mxCell>
        <mxCell id="vHo_rE_Bp0TU5aitMGvb-35" value="&lt;span style=&quot;font-size: 20px;&quot;&gt;&lt;b&gt;Tạo báo cáo thống kê sản phẩm tồn kho&lt;/b&gt;&lt;/span&gt;" style="text;html=1;strokeColor=none;fillColor=none;align=center;verticalAlign=middle;whiteSpace=wrap;rounded=0;" vertex="1" parent="vHo_rE_Bp0TU5aitMGvb-34">
          <mxGeometry y="20" width="180" height="90" as="geometry" />
        </mxCell>
      </root>
    </mxGraphModel>
  </diagram>
  <diagram id="6s6HtF54Ab7om4bh_4j7" name="Usecase">
    <mxGraphModel dx="3244" dy="2332" grid="1" gridSize="10" guides="1" tooltips="1" connect="1" arrows="1" fold="1" page="1" pageScale="1" pageWidth="850" pageHeight="1100" math="0" shadow="0">
      <root>
        <mxCell id="0" />
        <mxCell id="1" parent="0" />
        <mxCell id="xOyRXuv21lfUi53y6H6R-1" value="Nhân viên kho" style="shape=umlActor;verticalLabelPosition=bottom;verticalAlign=top;html=1;outlineConnect=0;" vertex="1" parent="1">
          <mxGeometry x="831" y="400" width="30" height="60" as="geometry" />
        </mxCell>
        <mxCell id="xOyRXuv21lfUi53y6H6R-2" value="Nhân viên bán hàng" style="shape=umlActor;verticalLabelPosition=bottom;verticalAlign=top;html=1;outlineConnect=0;" vertex="1" parent="1">
          <mxGeometry x="957" y="-100" width="30" height="60" as="geometry" />
        </mxCell>
        <mxCell id="xOyRXuv21lfUi53y6H6R-3" value="Admin" style="shape=umlActor;verticalLabelPosition=bottom;verticalAlign=top;html=1;outlineConnect=0;" vertex="1" parent="1">
          <mxGeometry x="30" y="325" width="30" height="60" as="geometry" />
        </mxCell>
        <mxCell id="xOyRXuv21lfUi53y6H6R-4" value="" style="rounded=0;whiteSpace=wrap;html=1;" vertex="1" parent="1">
          <mxGeometry x="105" y="-520" width="790" height="1240" as="geometry" />
        </mxCell>
        <mxCell id="xOyRXuv21lfUi53y6H6R-5" value="Xem thông tin sản phẩm" style="ellipse;whiteSpace=wrap;html=1;" vertex="1" parent="1">
          <mxGeometry x="510" y="-250" width="120" height="80" as="geometry" />
        </mxCell>
        <mxCell id="xOyRXuv21lfUi53y6H6R-6" value="Thanh toán" style="ellipse;whiteSpace=wrap;html=1;" vertex="1" parent="1">
          <mxGeometry x="390" y="-360" width="120" height="50" as="geometry" />
        </mxCell>
        <mxCell id="xOyRXuv21lfUi53y6H6R-7" value="Backup CSDL" style="ellipse;whiteSpace=wrap;html=1;" vertex="1" parent="1">
          <mxGeometry x="190" y="270" width="120" height="80" as="geometry" />
        </mxCell>
        <mxCell id="xOyRXuv21lfUi53y6H6R-8" value="Đặt hàng" style="ellipse;whiteSpace=wrap;html=1;" vertex="1" parent="1">
          <mxGeometry x="230" y="-365" width="100" height="55" as="geometry" />
        </mxCell>
        <mxCell id="xOyRXuv21lfUi53y6H6R-9" value="Đăng nhập" style="ellipse;whiteSpace=wrap;html=1;" vertex="1" parent="1">
          <mxGeometry x="430" y="305" width="120" height="80" as="geometry" />
        </mxCell>
        <mxCell id="xOyRXuv21lfUi53y6H6R-10" value="Tìm kiếm sản phẩm" style="ellipse;whiteSpace=wrap;html=1;" vertex="1" parent="1">
          <mxGeometry x="410" y="-180" width="120" height="80" as="geometry" />
        </mxCell>
        <mxCell id="xOyRXuv21lfUi53y6H6R-11" value="Quản lý nhập hàng" style="ellipse;whiteSpace=wrap;html=1;" vertex="1" parent="1">
          <mxGeometry x="764" y="310" width="120" height="70" as="geometry" />
        </mxCell>
        <mxCell id="xOyRXuv21lfUi53y6H6R-12" value="Quản trị hệ thống người dùng" style="ellipse;whiteSpace=wrap;html=1;" vertex="1" parent="1">
          <mxGeometry x="120" y="150" width="120" height="80" as="geometry" />
        </mxCell>
        <mxCell id="xOyRXuv21lfUi53y6H6R-13" value="Báo cáo doanh thu" style="ellipse;whiteSpace=wrap;html=1;" vertex="1" parent="1">
          <mxGeometry x="150" y="380" width="120" height="70" as="geometry" />
        </mxCell>
        <mxCell id="xOyRXuv21lfUi53y6H6R-14" value="" style="endArrow=none;html=1;rounded=0;exitX=1;exitY=0.3333333333333333;exitDx=0;exitDy=0;exitPerimeter=0;" edge="1" parent="1" source="xOyRXuv21lfUi53y6H6R-18" target="xOyRXuv21lfUi53y6H6R-5">
          <mxGeometry width="50" height="50" relative="1" as="geometry">
            <mxPoint x="90" y="-220" as="sourcePoint" />
            <mxPoint x="440" y="220" as="targetPoint" />
          </mxGeometry>
        </mxCell>
        <mxCell id="xOyRXuv21lfUi53y6H6R-15" value="" style="endArrow=none;html=1;rounded=0;exitX=1;exitY=0.3333333333333333;exitDx=0;exitDy=0;exitPerimeter=0;" edge="1" parent="1" source="xOyRXuv21lfUi53y6H6R-18" target="xOyRXuv21lfUi53y6H6R-6">
          <mxGeometry width="50" height="50" relative="1" as="geometry">
            <mxPoint x="80" y="70" as="sourcePoint" />
            <mxPoint x="219" y="21" as="targetPoint" />
          </mxGeometry>
        </mxCell>
        <mxCell id="xOyRXuv21lfUi53y6H6R-16" value="" style="endArrow=none;html=1;rounded=0;" edge="1" parent="1" target="xOyRXuv21lfUi53y6H6R-10">
          <mxGeometry width="50" height="50" relative="1" as="geometry">
            <mxPoint x="80" y="-230" as="sourcePoint" />
            <mxPoint x="229" y="31" as="targetPoint" />
          </mxGeometry>
        </mxCell>
        <mxCell id="xOyRXuv21lfUi53y6H6R-17" value="" style="endArrow=none;html=1;rounded=0;exitX=1;exitY=0.3333333333333333;exitDx=0;exitDy=0;exitPerimeter=0;" edge="1" parent="1" source="xOyRXuv21lfUi53y6H6R-18" target="xOyRXuv21lfUi53y6H6R-8">
          <mxGeometry width="50" height="50" relative="1" as="geometry">
            <mxPoint x="80" y="70" as="sourcePoint" />
            <mxPoint x="239" y="41" as="targetPoint" />
          </mxGeometry>
        </mxCell>
        <mxCell id="xOyRXuv21lfUi53y6H6R-18" value="Khách hàng&amp;nbsp;" style="shape=umlActor;verticalLabelPosition=bottom;verticalAlign=top;html=1;outlineConnect=0;" vertex="1" parent="1">
          <mxGeometry x="50" y="-250" width="30" height="60" as="geometry" />
        </mxCell>
        <mxCell id="xOyRXuv21lfUi53y6H6R-19" value="Quản lý loại sản phẩm" style="ellipse;whiteSpace=wrap;html=1;" vertex="1" parent="1">
          <mxGeometry x="160" y="470" width="120" height="80" as="geometry" />
        </mxCell>
        <mxCell id="xOyRXuv21lfUi53y6H6R-20" value="Quản lý nhân viên" style="ellipse;whiteSpace=wrap;html=1;" vertex="1" parent="1">
          <mxGeometry x="220" y="550" width="120" height="70" as="geometry" />
        </mxCell>
        <mxCell id="xOyRXuv21lfUi53y6H6R-21" value="Quản lý sản phẩm" style="ellipse;whiteSpace=wrap;html=1;" vertex="1" parent="1">
          <mxGeometry x="420" y="600" width="120" height="80" as="geometry" />
        </mxCell>
        <mxCell id="xOyRXuv21lfUi53y6H6R-22" value="Quản lý tồn kho" style="ellipse;whiteSpace=wrap;html=1;" vertex="1" parent="1">
          <mxGeometry x="720" y="440" width="120" height="80" as="geometry" />
        </mxCell>
        <mxCell id="xOyRXuv21lfUi53y6H6R-23" value="Thêm đơn hàng" style="ellipse;whiteSpace=wrap;html=1;" vertex="1" parent="1">
          <mxGeometry x="780" y="-280" width="120" height="80" as="geometry" />
        </mxCell>
        <mxCell id="xOyRXuv21lfUi53y6H6R-24" value="Quản lý đơn đặt hàng" style="ellipse;whiteSpace=wrap;html=1;" vertex="1" parent="1">
          <mxGeometry x="752" y="-155" width="120" height="80" as="geometry" />
        </mxCell>
        <mxCell id="xOyRXuv21lfUi53y6H6R-25" value="Yêu cầu hỗ trợ và tư vấn KH" style="ellipse;whiteSpace=wrap;html=1;" vertex="1" parent="1">
          <mxGeometry x="580" y="-80" width="120" height="80" as="geometry" />
        </mxCell>
        <mxCell id="xOyRXuv21lfUi53y6H6R-26" value="" style="endArrow=none;html=1;rounded=0;" edge="1" parent="1" source="xOyRXuv21lfUi53y6H6R-3" target="xOyRXuv21lfUi53y6H6R-12">
          <mxGeometry width="50" height="50" relative="1" as="geometry">
            <mxPoint x="370" y="370" as="sourcePoint" />
            <mxPoint x="420" y="320" as="targetPoint" />
          </mxGeometry>
        </mxCell>
        <mxCell id="xOyRXuv21lfUi53y6H6R-27" value="" style="endArrow=none;html=1;rounded=0;" edge="1" parent="1" target="xOyRXuv21lfUi53y6H6R-7">
          <mxGeometry width="50" height="50" relative="1" as="geometry">
            <mxPoint x="60" y="340" as="sourcePoint" />
            <mxPoint x="181" y="288" as="targetPoint" />
          </mxGeometry>
        </mxCell>
        <mxCell id="xOyRXuv21lfUi53y6H6R-28" value="" style="endArrow=none;html=1;rounded=0;entryX=0;entryY=0;entryDx=0;entryDy=0;" edge="1" parent="1" target="xOyRXuv21lfUi53y6H6R-13">
          <mxGeometry width="50" height="50" relative="1" as="geometry">
            <mxPoint x="60" y="360" as="sourcePoint" />
            <mxPoint x="191" y="298" as="targetPoint" />
          </mxGeometry>
        </mxCell>
        <mxCell id="xOyRXuv21lfUi53y6H6R-29" value="" style="endArrow=none;html=1;rounded=0;entryX=0.05;entryY=0.738;entryDx=0;entryDy=0;entryPerimeter=0;" edge="1" parent="1" source="xOyRXuv21lfUi53y6H6R-3" target="xOyRXuv21lfUi53y6H6R-9">
          <mxGeometry width="50" height="50" relative="1" as="geometry">
            <mxPoint x="70" y="290" as="sourcePoint" />
            <mxPoint x="420" y="390" as="targetPoint" />
          </mxGeometry>
        </mxCell>
        <mxCell id="xOyRXuv21lfUi53y6H6R-30" value="" style="endArrow=none;html=1;rounded=0;entryX=0;entryY=1;entryDx=0;entryDy=0;" edge="1" parent="1" source="xOyRXuv21lfUi53y6H6R-77" target="xOyRXuv21lfUi53y6H6R-19">
          <mxGeometry width="50" height="50" relative="1" as="geometry">
            <mxPoint x="20" y="830" as="sourcePoint" />
            <mxPoint x="420" y="590" as="targetPoint" />
          </mxGeometry>
        </mxCell>
        <mxCell id="xOyRXuv21lfUi53y6H6R-31" value="" style="endArrow=none;html=1;rounded=0;" edge="1" parent="1" target="xOyRXuv21lfUi53y6H6R-21">
          <mxGeometry width="50" height="50" relative="1" as="geometry">
            <mxPoint x="20" y="610" as="sourcePoint" />
            <mxPoint x="420" y="590" as="targetPoint" />
          </mxGeometry>
        </mxCell>
        <mxCell id="xOyRXuv21lfUi53y6H6R-32" value="" style="endArrow=none;html=1;rounded=0;" edge="1" parent="1" target="xOyRXuv21lfUi53y6H6R-20">
          <mxGeometry width="50" height="50" relative="1" as="geometry">
            <mxPoint x="20" y="610" as="sourcePoint" />
            <mxPoint x="420" y="590" as="targetPoint" />
          </mxGeometry>
        </mxCell>
        <mxCell id="xOyRXuv21lfUi53y6H6R-33" value="" style="endArrow=none;html=1;rounded=0;" edge="1" parent="1" source="xOyRXuv21lfUi53y6H6R-2" target="xOyRXuv21lfUi53y6H6R-24">
          <mxGeometry width="50" height="50" relative="1" as="geometry">
            <mxPoint x="470" y="140" as="sourcePoint" />
            <mxPoint x="520" y="90" as="targetPoint" />
          </mxGeometry>
        </mxCell>
        <mxCell id="xOyRXuv21lfUi53y6H6R-34" value="" style="endArrow=none;html=1;rounded=0;entryX=1;entryY=0.5;entryDx=0;entryDy=0;" edge="1" parent="1" target="xOyRXuv21lfUi53y6H6R-25">
          <mxGeometry width="50" height="50" relative="1" as="geometry">
            <mxPoint x="960" y="-80" as="sourcePoint" />
            <mxPoint x="876" y="-126" as="targetPoint" />
          </mxGeometry>
        </mxCell>
        <mxCell id="xOyRXuv21lfUi53y6H6R-35" value="" style="endArrow=none;html=1;rounded=0;" edge="1" parent="1" source="xOyRXuv21lfUi53y6H6R-9">
          <mxGeometry width="50" height="50" relative="1" as="geometry">
            <mxPoint x="510" y="340" as="sourcePoint" />
            <mxPoint x="950" y="-70" as="targetPoint" />
          </mxGeometry>
        </mxCell>
        <mxCell id="xOyRXuv21lfUi53y6H6R-36" value="Nhân viên kho" style="shape=umlActor;verticalLabelPosition=bottom;verticalAlign=top;html=1;outlineConnect=0;" vertex="1" parent="1">
          <mxGeometry x="987" y="360" width="30" height="60" as="geometry" />
        </mxCell>
        <mxCell id="xOyRXuv21lfUi53y6H6R-37" value="" style="endArrow=none;html=1;rounded=0;entryX=0.8;entryY=0.963;entryDx=0;entryDy=0;entryPerimeter=0;" edge="1" parent="1" source="xOyRXuv21lfUi53y6H6R-36" target="xOyRXuv21lfUi53y6H6R-9">
          <mxGeometry width="50" height="50" relative="1" as="geometry">
            <mxPoint x="1090" y="500" as="sourcePoint" />
            <mxPoint x="1140" y="450" as="targetPoint" />
          </mxGeometry>
        </mxCell>
        <mxCell id="xOyRXuv21lfUi53y6H6R-38" value="" style="endArrow=none;html=1;rounded=0;exitX=0;exitY=0.3333333333333333;exitDx=0;exitDy=0;exitPerimeter=0;entryX=0.9;entryY=0.775;entryDx=0;entryDy=0;entryPerimeter=0;" edge="1" parent="1" source="xOyRXuv21lfUi53y6H6R-36" target="xOyRXuv21lfUi53y6H6R-11">
          <mxGeometry width="50" height="50" relative="1" as="geometry">
            <mxPoint x="1124" y="130" as="sourcePoint" />
            <mxPoint x="1174" y="80" as="targetPoint" />
          </mxGeometry>
        </mxCell>
        <mxCell id="xOyRXuv21lfUi53y6H6R-39" value="" style="endArrow=none;html=1;rounded=0;entryX=1.017;entryY=0.675;entryDx=0;entryDy=0;entryPerimeter=0;" edge="1" parent="1" target="xOyRXuv21lfUi53y6H6R-22">
          <mxGeometry width="50" height="50" relative="1" as="geometry">
            <mxPoint x="1004" y="390" as="sourcePoint" />
            <mxPoint x="1174" y="80" as="targetPoint" />
          </mxGeometry>
        </mxCell>
        <mxCell id="xOyRXuv21lfUi53y6H6R-40" value="Chuyển khoản" style="ellipse;whiteSpace=wrap;html=1;" vertex="1" parent="1">
          <mxGeometry x="560" y="-360" width="120" height="80" as="geometry" />
        </mxCell>
        <mxCell id="xOyRXuv21lfUi53y6H6R-41" value="Thanh toán khi nhận hàng" style="ellipse;whiteSpace=wrap;html=1;" vertex="1" parent="1">
          <mxGeometry x="580" y="-450" width="120" height="80" as="geometry" />
        </mxCell>
        <mxCell id="xOyRXuv21lfUi53y6H6R-42" value="&amp;lt;&amp;lt;extend&amp;gt;&amp;gt;" style="html=1;verticalAlign=bottom;labelBackgroundColor=none;endArrow=open;endFill=0;dashed=1;rounded=0;exitX=0;exitY=1;exitDx=0;exitDy=0;" edge="1" parent="1" source="xOyRXuv21lfUi53y6H6R-41" target="xOyRXuv21lfUi53y6H6R-6">
          <mxGeometry width="160" relative="1" as="geometry">
            <mxPoint x="310" y="190" as="sourcePoint" />
            <mxPoint x="470" y="190" as="targetPoint" />
          </mxGeometry>
        </mxCell>
        <mxCell id="xOyRXuv21lfUi53y6H6R-43" value="&amp;lt;&amp;lt;extend&amp;gt;&amp;gt;" style="html=1;verticalAlign=bottom;labelBackgroundColor=none;endArrow=open;endFill=0;dashed=1;rounded=0;exitX=0;exitY=0.5;exitDx=0;exitDy=0;entryX=0.925;entryY=0.775;entryDx=0;entryDy=0;entryPerimeter=0;" edge="1" parent="1" source="xOyRXuv21lfUi53y6H6R-40" target="xOyRXuv21lfUi53y6H6R-6">
          <mxGeometry width="160" relative="1" as="geometry">
            <mxPoint x="310" y="190" as="sourcePoint" />
            <mxPoint x="470" y="190" as="targetPoint" />
          </mxGeometry>
        </mxCell>
        <mxCell id="xOyRXuv21lfUi53y6H6R-44" value="Quên mật khẩu" style="ellipse;whiteSpace=wrap;html=1;" vertex="1" parent="1">
          <mxGeometry x="550" y="430" width="120" height="80" as="geometry" />
        </mxCell>
        <mxCell id="xOyRXuv21lfUi53y6H6R-45" value="&amp;lt;&amp;lt;extend&amp;gt;&amp;gt;" style="html=1;verticalAlign=bottom;labelBackgroundColor=none;endArrow=open;endFill=0;dashed=1;rounded=0;exitX=0.5;exitY=0;exitDx=0;exitDy=0;entryX=0.717;entryY=0.913;entryDx=0;entryDy=0;entryPerimeter=0;" edge="1" parent="1" source="xOyRXuv21lfUi53y6H6R-44" target="xOyRXuv21lfUi53y6H6R-9">
          <mxGeometry width="160" relative="1" as="geometry">
            <mxPoint x="310" y="270" as="sourcePoint" />
            <mxPoint x="460" y="410" as="targetPoint" />
          </mxGeometry>
        </mxCell>
        <mxCell id="xOyRXuv21lfUi53y6H6R-46" value="Đăng xuất" style="ellipse;whiteSpace=wrap;html=1;" vertex="1" parent="1">
          <mxGeometry x="470" y="160" width="120" height="80" as="geometry" />
        </mxCell>
        <mxCell id="xOyRXuv21lfUi53y6H6R-47" value="Đăng ký" style="ellipse;whiteSpace=wrap;html=1;" vertex="1" parent="1">
          <mxGeometry x="430" y="450" width="120" height="80" as="geometry" />
        </mxCell>
        <mxCell id="xOyRXuv21lfUi53y6H6R-48" value="&amp;lt;&amp;lt;include&amp;gt;&amp;gt;" style="html=1;verticalAlign=bottom;labelBackgroundColor=none;endArrow=open;endFill=0;dashed=1;rounded=0;exitX=1;exitY=0.5;exitDx=0;exitDy=0;entryX=0;entryY=0.5;entryDx=0;entryDy=0;" edge="1" parent="1" source="xOyRXuv21lfUi53y6H6R-8" target="xOyRXuv21lfUi53y6H6R-6">
          <mxGeometry width="160" relative="1" as="geometry">
            <mxPoint x="460" y="-100" as="sourcePoint" />
            <mxPoint x="620" y="-100" as="targetPoint" />
          </mxGeometry>
        </mxCell>
        <mxCell id="xOyRXuv21lfUi53y6H6R-49" value="&amp;lt;&amp;lt;include&amp;gt;&amp;gt;" style="html=1;verticalAlign=bottom;labelBackgroundColor=none;endArrow=open;endFill=0;dashed=1;rounded=0;exitX=0.642;exitY=0.038;exitDx=0;exitDy=0;exitPerimeter=0;entryX=0.5;entryY=1;entryDx=0;entryDy=0;" edge="1" parent="1" source="xOyRXuv21lfUi53y6H6R-9" target="xOyRXuv21lfUi53y6H6R-46">
          <mxGeometry width="160" relative="1" as="geometry">
            <mxPoint x="460" y="280" as="sourcePoint" />
            <mxPoint x="620" y="280" as="targetPoint" />
          </mxGeometry>
        </mxCell>
        <mxCell id="xOyRXuv21lfUi53y6H6R-50" value="Điều chỉnh giỏ hàng" style="ellipse;whiteSpace=wrap;html=1;" vertex="1" parent="1">
          <mxGeometry x="105" y="-70" width="120" height="80" as="geometry" />
        </mxCell>
        <mxCell id="xOyRXuv21lfUi53y6H6R-51" value="Tra cứu đơn hàng" style="ellipse;whiteSpace=wrap;html=1;" vertex="1" parent="1">
          <mxGeometry x="380" y="-80" width="120" height="80" as="geometry" />
        </mxCell>
        <mxCell id="xOyRXuv21lfUi53y6H6R-52" value="" style="endArrow=none;html=1;rounded=0;exitX=0;exitY=0.5;exitDx=0;exitDy=0;" edge="1" parent="1" source="xOyRXuv21lfUi53y6H6R-25">
          <mxGeometry width="50" height="50" relative="1" as="geometry">
            <mxPoint x="970" y="-110" as="sourcePoint" />
            <mxPoint x="80" y="-230" as="targetPoint" />
            <Array as="points" />
          </mxGeometry>
        </mxCell>
        <mxCell id="xOyRXuv21lfUi53y6H6R-53" value="Xem lịch sử mua hàng" style="ellipse;whiteSpace=wrap;html=1;" vertex="1" parent="1">
          <mxGeometry x="380" y="-280" width="120" height="60" as="geometry" />
        </mxCell>
        <mxCell id="xOyRXuv21lfUi53y6H6R-54" value="Đánh giá sản phẩm" style="ellipse;whiteSpace=wrap;html=1;" vertex="1" parent="1">
          <mxGeometry x="450" y="50" width="120" height="80" as="geometry" />
        </mxCell>
        <mxCell id="xOyRXuv21lfUi53y6H6R-55" value="Xem chi tiết sản phẩm" style="ellipse;whiteSpace=wrap;html=1;" vertex="1" parent="1">
          <mxGeometry x="255" y="-470" width="120" height="80" as="geometry" />
        </mxCell>
        <mxCell id="xOyRXuv21lfUi53y6H6R-56" value="" style="endArrow=none;html=1;rounded=0;exitX=0.5;exitY=0;exitDx=0;exitDy=0;" edge="1" parent="1" source="xOyRXuv21lfUi53y6H6R-9">
          <mxGeometry width="50" height="50" relative="1" as="geometry">
            <mxPoint x="950" y="-90" as="sourcePoint" />
            <mxPoint x="80" y="-230" as="targetPoint" />
          </mxGeometry>
        </mxCell>
        <mxCell id="xOyRXuv21lfUi53y6H6R-57" value="" style="endArrow=none;html=1;rounded=0;" edge="1" parent="1" source="xOyRXuv21lfUi53y6H6R-55">
          <mxGeometry width="50" height="50" relative="1" as="geometry">
            <mxPoint x="950" y="-90" as="sourcePoint" />
            <mxPoint x="80" y="-230" as="targetPoint" />
          </mxGeometry>
        </mxCell>
        <mxCell id="xOyRXuv21lfUi53y6H6R-58" value="" style="endArrow=none;html=1;rounded=0;" edge="1" parent="1" source="xOyRXuv21lfUi53y6H6R-50">
          <mxGeometry width="50" height="50" relative="1" as="geometry">
            <mxPoint x="950" y="-90" as="sourcePoint" />
            <mxPoint x="80" y="-230" as="targetPoint" />
          </mxGeometry>
        </mxCell>
        <mxCell id="xOyRXuv21lfUi53y6H6R-59" value="" style="endArrow=none;html=1;rounded=0;" edge="1" parent="1" target="xOyRXuv21lfUi53y6H6R-53">
          <mxGeometry width="50" height="50" relative="1" as="geometry">
            <mxPoint x="80" y="-230" as="sourcePoint" />
            <mxPoint x="360" y="-320" as="targetPoint" />
          </mxGeometry>
        </mxCell>
        <mxCell id="xOyRXuv21lfUi53y6H6R-60" value="Huỷ đơn hàng" style="ellipse;whiteSpace=wrap;html=1;" vertex="1" parent="1">
          <mxGeometry x="195" y="-140" width="100" height="60" as="geometry" />
        </mxCell>
        <mxCell id="xOyRXuv21lfUi53y6H6R-61" value="&amp;lt;&amp;lt;extend&amp;gt;&amp;gt;" style="html=1;verticalAlign=bottom;labelBackgroundColor=none;endArrow=open;endFill=0;dashed=1;rounded=0;entryX=0.925;entryY=0.775;entryDx=0;entryDy=0;entryPerimeter=0;" edge="1" parent="1" source="xOyRXuv21lfUi53y6H6R-54">
          <mxGeometry width="160" relative="1" as="geometry">
            <mxPoint x="539" y="28" as="sourcePoint" />
            <mxPoint x="450" y="-10" as="targetPoint" />
          </mxGeometry>
        </mxCell>
        <mxCell id="xOyRXuv21lfUi53y6H6R-62" value="&amp;lt;&amp;lt;extend&amp;gt;&amp;gt;" style="html=1;verticalAlign=bottom;labelBackgroundColor=none;endArrow=open;endFill=0;dashed=1;rounded=0;exitX=0.97;exitY=0.69;exitDx=0;exitDy=0;exitPerimeter=0;" edge="1" parent="1" source="xOyRXuv21lfUi53y6H6R-60" target="xOyRXuv21lfUi53y6H6R-51">
          <mxGeometry width="160" relative="1" as="geometry">
            <mxPoint x="360" y="-90" as="sourcePoint" />
            <mxPoint x="520" y="-90" as="targetPoint" />
          </mxGeometry>
        </mxCell>
        <mxCell id="xOyRXuv21lfUi53y6H6R-63" value="Nếu chưa xác nhân" style="text;html=1;align=center;verticalAlign=middle;whiteSpace=wrap;rounded=0;" vertex="1" parent="1">
          <mxGeometry x="295" y="-70" width="60" height="30" as="geometry" />
        </mxCell>
        <mxCell id="xOyRXuv21lfUi53y6H6R-64" value="Sau khi đã xác nhận giao hàng thành công" style="text;html=1;align=center;verticalAlign=middle;whiteSpace=wrap;rounded=0;" vertex="1" parent="1">
          <mxGeometry x="390" y="40" width="60" height="30" as="geometry" />
        </mxCell>
        <mxCell id="xOyRXuv21lfUi53y6H6R-65" value="Duyệt đơn hàng" style="ellipse;whiteSpace=wrap;html=1;" vertex="1" parent="1">
          <mxGeometry x="650" y="-270" width="120" height="80" as="geometry" />
        </mxCell>
        <mxCell id="xOyRXuv21lfUi53y6H6R-66" value="Sửa đơn hàng" style="ellipse;whiteSpace=wrap;html=1;" vertex="1" parent="1">
          <mxGeometry x="580" y="-170" width="120" height="80" as="geometry" />
        </mxCell>
        <mxCell id="xOyRXuv21lfUi53y6H6R-67" value="" style="endArrow=block;endSize=16;endFill=0;html=1;rounded=0;exitX=0.5;exitY=1;exitDx=0;exitDy=0;" edge="1" parent="1" source="xOyRXuv21lfUi53y6H6R-23" target="xOyRXuv21lfUi53y6H6R-24">
          <mxGeometry width="160" relative="1" as="geometry">
            <mxPoint x="560" y="110" as="sourcePoint" />
            <mxPoint x="720" y="110" as="targetPoint" />
          </mxGeometry>
        </mxCell>
        <mxCell id="xOyRXuv21lfUi53y6H6R-68" value="" style="endArrow=block;endSize=16;endFill=0;html=1;rounded=0;exitX=0.817;exitY=0.86;exitDx=0;exitDy=0;exitPerimeter=0;" edge="1" parent="1" source="xOyRXuv21lfUi53y6H6R-65" target="xOyRXuv21lfUi53y6H6R-24">
          <mxGeometry width="160" relative="1" as="geometry">
            <mxPoint x="850" y="-260" as="sourcePoint" />
            <mxPoint x="833" y="-202" as="targetPoint" />
          </mxGeometry>
        </mxCell>
        <mxCell id="xOyRXuv21lfUi53y6H6R-69" value="" style="endArrow=block;endSize=16;endFill=0;html=1;rounded=0;exitX=1;exitY=0.5;exitDx=0;exitDy=0;" edge="1" parent="1" source="xOyRXuv21lfUi53y6H6R-66" target="xOyRXuv21lfUi53y6H6R-24">
          <mxGeometry width="160" relative="1" as="geometry">
            <mxPoint x="860" y="-250" as="sourcePoint" />
            <mxPoint x="843" y="-192" as="targetPoint" />
          </mxGeometry>
        </mxCell>
        <mxCell id="xOyRXuv21lfUi53y6H6R-70" value="Sửa phiếu nhập" style="ellipse;whiteSpace=wrap;html=1;" vertex="1" parent="1">
          <mxGeometry x="660" y="200" width="120" height="80" as="geometry" />
        </mxCell>
        <mxCell id="xOyRXuv21lfUi53y6H6R-71" value="Tạo phiếu nhập" style="ellipse;whiteSpace=wrap;html=1;" vertex="1" parent="1">
          <mxGeometry x="744" y="130" width="120" height="80" as="geometry" />
        </mxCell>
        <mxCell id="xOyRXuv21lfUi53y6H6R-72" value="In phiếu nhập" style="ellipse;whiteSpace=wrap;html=1;" vertex="1" parent="1">
          <mxGeometry x="590" y="300" width="120" height="80" as="geometry" />
        </mxCell>
        <mxCell id="xOyRXuv21lfUi53y6H6R-73" value="" style="endArrow=block;endSize=16;endFill=0;html=1;rounded=0;exitX=0.605;exitY=1.01;exitDx=0;exitDy=0;exitPerimeter=0;" edge="1" parent="1" source="xOyRXuv21lfUi53y6H6R-71" target="xOyRXuv21lfUi53y6H6R-11">
          <mxGeometry width="160" relative="1" as="geometry">
            <mxPoint x="744" y="280" as="sourcePoint" />
            <mxPoint x="786" y="270" as="targetPoint" />
          </mxGeometry>
        </mxCell>
        <mxCell id="xOyRXuv21lfUi53y6H6R-74" value="" style="endArrow=block;endSize=16;endFill=0;html=1;rounded=0;exitX=0.572;exitY=0.975;exitDx=0;exitDy=0;exitPerimeter=0;" edge="1" parent="1" source="xOyRXuv21lfUi53y6H6R-70" target="xOyRXuv21lfUi53y6H6R-11">
          <mxGeometry width="160" relative="1" as="geometry">
            <mxPoint x="664" y="350" as="sourcePoint" />
            <mxPoint x="796" y="329" as="targetPoint" />
          </mxGeometry>
        </mxCell>
        <mxCell id="xOyRXuv21lfUi53y6H6R-75" value="" style="endArrow=block;endSize=16;endFill=0;html=1;rounded=0;" edge="1" parent="1" source="xOyRXuv21lfUi53y6H6R-72" target="xOyRXuv21lfUi53y6H6R-11">
          <mxGeometry width="160" relative="1" as="geometry">
            <mxPoint x="634" y="360" as="sourcePoint" />
            <mxPoint x="774" y="360" as="targetPoint" />
          </mxGeometry>
        </mxCell>
        <mxCell id="xOyRXuv21lfUi53y6H6R-76" value="Quản lý khách hàng" style="ellipse;whiteSpace=wrap;html=1;" vertex="1" parent="1">
          <mxGeometry x="285" y="640" width="120" height="70" as="geometry" />
        </mxCell>
        <mxCell id="xOyRXuv21lfUi53y6H6R-77" value="Nhân viên quản lý&amp;nbsp;" style="shape=umlActor;verticalLabelPosition=bottom;verticalAlign=top;html=1;outlineConnect=0;" vertex="1" parent="1">
          <mxGeometry x="-10" y="590" width="30" height="60" as="geometry" />
        </mxCell>
        <mxCell id="xOyRXuv21lfUi53y6H6R-78" value="" style="endArrow=none;html=1;rounded=0;" edge="1" parent="1" target="xOyRXuv21lfUi53y6H6R-76">
          <mxGeometry width="50" height="50" relative="1" as="geometry">
            <mxPoint x="20" y="620" as="sourcePoint" />
            <mxPoint x="310" y="841" as="targetPoint" />
          </mxGeometry>
        </mxCell>
        <mxCell id="xOyRXuv21lfUi53y6H6R-79" value="Xoá CSDL tài khoản" style="ellipse;whiteSpace=wrap;html=1;" vertex="1" parent="1">
          <mxGeometry x="300" y="210" width="110" height="60" as="geometry" />
        </mxCell>
        <mxCell id="xOyRXuv21lfUi53y6H6R-80" value="Quản trị hệ thống người dùng" style="ellipse;whiteSpace=wrap;html=1;" vertex="1" parent="1">
          <mxGeometry x="265" y="120" width="100" height="70" as="geometry" />
        </mxCell>
        <mxCell id="xOyRXuv21lfUi53y6H6R-81" value="Quản trị hệ thống người dùng" style="ellipse;whiteSpace=wrap;html=1;" vertex="1" parent="1">
          <mxGeometry x="190" y="50" width="110" height="70" as="geometry" />
        </mxCell>
        <mxCell id="xOyRXuv21lfUi53y6H6R-82" value="Quản lý tồn kho" style="ellipse;whiteSpace=wrap;html=1;" vertex="1" parent="1">
          <mxGeometry x="624" y="530" width="120" height="80" as="geometry" />
        </mxCell>
        <mxCell id="xOyRXuv21lfUi53y6H6R-83" value="Báo cáo số lượng tồn" style="ellipse;whiteSpace=wrap;html=1;" vertex="1" parent="1">
          <mxGeometry x="764" y="570" width="120" height="80" as="geometry" />
        </mxCell>
        <mxCell id="xOyRXuv21lfUi53y6H6R-84" value="" style="endArrow=block;endSize=16;endFill=0;html=1;rounded=0;entryX=0.618;entryY=0.975;entryDx=0;entryDy=0;entryPerimeter=0;" edge="1" parent="1" target="xOyRXuv21lfUi53y6H6R-22">
          <mxGeometry width="160" relative="1" as="geometry">
            <mxPoint x="810" y="569" as="sourcePoint" />
            <mxPoint x="864" y="570" as="targetPoint" />
          </mxGeometry>
        </mxCell>
        <mxCell id="xOyRXuv21lfUi53y6H6R-85" value="" style="endArrow=block;endSize=16;endFill=0;html=1;rounded=0;" edge="1" parent="1" target="xOyRXuv21lfUi53y6H6R-22">
          <mxGeometry width="160" relative="1" as="geometry">
            <mxPoint x="698" y="530" as="sourcePoint" />
            <mxPoint x="752" y="531" as="targetPoint" />
          </mxGeometry>
        </mxCell>
        <mxCell id="xOyRXuv21lfUi53y6H6R-86" value="" style="endArrow=block;endSize=16;endFill=0;html=1;rounded=0;exitX=0;exitY=1;exitDx=0;exitDy=0;entryX=0.45;entryY=0.038;entryDx=0;entryDy=0;entryPerimeter=0;" edge="1" parent="1" source="xOyRXuv21lfUi53y6H6R-81" target="xOyRXuv21lfUi53y6H6R-12">
          <mxGeometry width="160" relative="1" as="geometry">
            <mxPoint x="240" y="220.00000000000006" as="sourcePoint" />
            <mxPoint x="204" y="243.8" as="targetPoint" />
          </mxGeometry>
        </mxCell>
        <mxCell id="xOyRXuv21lfUi53y6H6R-87" value="" style="endArrow=block;endSize=16;endFill=0;html=1;rounded=0;entryX=0.938;entryY=0.255;entryDx=0;entryDy=0;entryPerimeter=0;" edge="1" parent="1" source="xOyRXuv21lfUi53y6H6R-80" target="xOyRXuv21lfUi53y6H6R-12">
          <mxGeometry width="160" relative="1" as="geometry">
            <mxPoint x="251" y="220" as="sourcePoint" />
            <mxPoint x="214" y="253.8" as="targetPoint" />
          </mxGeometry>
        </mxCell>
        <mxCell id="xOyRXuv21lfUi53y6H6R-88" value="" style="endArrow=block;endSize=16;endFill=0;html=1;rounded=0;entryX=0.978;entryY=0.655;entryDx=0;entryDy=0;entryPerimeter=0;" edge="1" parent="1" source="xOyRXuv21lfUi53y6H6R-79" target="xOyRXuv21lfUi53y6H6R-12">
          <mxGeometry width="160" relative="1" as="geometry">
            <mxPoint x="352" y="255" as="sourcePoint" />
            <mxPoint x="247" y="278" as="targetPoint" />
          </mxGeometry>
        </mxCell>
        <mxCell id="xOyRXuv21lfUi53y6H6R-89" value="Thanh toán ví điện tử" style="ellipse;whiteSpace=wrap;html=1;" vertex="1" parent="1">
          <mxGeometry x="440" y="-450" width="120" height="50" as="geometry" />
        </mxCell>
        <mxCell id="xOyRXuv21lfUi53y6H6R-90" value="&amp;lt;&amp;lt;extend&amp;gt;&amp;gt;" style="html=1;verticalAlign=bottom;labelBackgroundColor=none;endArrow=open;endFill=0;dashed=1;rounded=0;" edge="1" parent="1" source="xOyRXuv21lfUi53y6H6R-89" target="xOyRXuv21lfUi53y6H6R-6">
          <mxGeometry x="0.021" width="160" relative="1" as="geometry">
            <mxPoint x="550" y="-490" as="sourcePoint" />
            <mxPoint x="462" y="-489" as="targetPoint" />
            <mxPoint as="offset" />
          </mxGeometry>
        </mxCell>
        <mxCell id="xOyRXuv21lfUi53y6H6R-91" value="&lt;font style=&quot;font-size: 21px;&quot;&gt;&lt;b&gt;WEBSITE HỆ THỐNG BÁN HÀNG CỬA HÀNG INNISFREE&lt;/b&gt;&lt;/font&gt;" style="text;html=1;align=center;verticalAlign=middle;whiteSpace=wrap;rounded=0;" vertex="1" parent="1">
          <mxGeometry x="150" y="-510" width="750" height="30" as="geometry" />
        </mxCell>
        <mxCell id="xOyRXuv21lfUi53y6H6R-92" value="Phân quyền" style="ellipse;whiteSpace=wrap;html=1;" vertex="1" parent="1">
          <mxGeometry x="300" y="390" width="120" height="80" as="geometry" />
        </mxCell>
        <mxCell id="xOyRXuv21lfUi53y6H6R-93" value="&amp;lt;&amp;lt;include&amp;gt;&amp;gt;" style="html=1;verticalAlign=bottom;labelBackgroundColor=none;endArrow=open;endFill=0;dashed=1;rounded=0;exitX=0.417;exitY=0.038;exitDx=0;exitDy=0;exitPerimeter=0;entryX=0;entryY=1;entryDx=0;entryDy=0;" edge="1" parent="1" source="xOyRXuv21lfUi53y6H6R-92" target="xOyRXuv21lfUi53y6H6R-9">
          <mxGeometry width="160" relative="1" as="geometry">
            <mxPoint x="490" y="460" as="sourcePoint" />
            <mxPoint x="482" y="394" as="targetPoint" />
          </mxGeometry>
        </mxCell>
        <mxCell id="xOyRXuv21lfUi53y6H6R-94" value="&amp;lt;&amp;lt;extend&amp;gt;&amp;gt;" style="html=1;verticalAlign=bottom;labelBackgroundColor=none;endArrow=open;endFill=0;dashed=1;rounded=0;" edge="1" parent="1" source="xOyRXuv21lfUi53y6H6R-47">
          <mxGeometry width="160" relative="1" as="geometry">
            <mxPoint x="330" y="385" as="sourcePoint" />
            <mxPoint x="490" y="385" as="targetPoint" />
          </mxGeometry>
        </mxCell>
        <mxCell id="xOyRXuv21lfUi53y6H6R-95" value="Áp voucher" style="ellipse;whiteSpace=wrap;html=1;" vertex="1" parent="1">
          <mxGeometry x="130" y="-480" width="100" height="55" as="geometry" />
        </mxCell>
        <mxCell id="xOyRXuv21lfUi53y6H6R-96" value="" style="endArrow=none;html=1;rounded=0;" edge="1" parent="1" target="xOyRXuv21lfUi53y6H6R-95">
          <mxGeometry width="50" height="50" relative="1" as="geometry">
            <mxPoint x="80" y="-230" as="sourcePoint" />
            <mxPoint x="370" y="30" as="targetPoint" />
          </mxGeometry>
        </mxCell>
        <mxCell id="xOyRXuv21lfUi53y6H6R-97" value="" style="endArrow=none;html=1;rounded=0;entryX=0.283;entryY=0.013;entryDx=0;entryDy=0;entryPerimeter=0;" edge="1" parent="1" target="xOyRXuv21lfUi53y6H6R-51">
          <mxGeometry width="50" height="50" relative="1" as="geometry">
            <mxPoint x="80" y="-230" as="sourcePoint" />
            <mxPoint x="370" y="30" as="targetPoint" />
          </mxGeometry>
        </mxCell>
      </root>
    </mxGraphModel>
  </diagram>
</mxfile>
